<svg xmlns="http://www.w3.org/2000/svg" xmlns:xlink="http://www.w3.org/1999/xlink" width="500" zoomAndPan="magnify" viewBox="0 0 375 374.999991" height="500" preserveAspectRatio="xMidYMid meet" version="1.0"><defs><clipPath id="b48b8a8f94"><path d="M 54 59.222656 L 356.25 59.222656 L 356.25 316.371094 L 54 316.371094 Z M 54 59.222656 " clip-rule="nonzero"/></clipPath></defs><path fill="#7ed957" d="M 42.527344 160.503906 C 39.875 177.078125 41.066406 194.15625 46.046875 210.21875 C 51.773438 228.824219 62.363281 245.542969 76.828125 258.742188 C 82.496094 263.9375 88.640625 268.476562 95.144531 272.328125 C 119.78125 286.867188 142.6875 276.449219 154.855469 263.101562 C 166.996094 249.722656 175.257812 225.957031 158.554688 202.753906 C 154.140625 196.605469 149.039062 190.839844 143.402344 185.765625 C 128.9375 172.597656 111.339844 163.519531 92.339844 159.519531 C 75.84375 155.964844 58.8125 156.324219 42.527344 160.503906 Z M 119.570312 300.214844 C 107.550781 300.214844 95.621094 296.871094 84.523438 290.304688 C 76.769531 285.734375 69.433594 280.300781 62.722656 274.148438 C 45.539062 258.472656 32.835938 238.40625 26.0625 216.3125 C 19.414062 194.84375 18.515625 171.851562 23.261719 149.875 C 24.035156 146.230469 26.75 143.246094 30.328125 142.109375 C 51.683594 135.332031 74.683594 134.226562 96.605469 138.828125 C 119.242188 143.574219 140.332031 154.414062 157.511719 170.089844 C 164.222656 176.242188 170.277344 183.019531 175.527344 190.363281 C 185.667969 204.488281 190.113281 220.582031 188.53125 236.855469 C 187.039062 251.546875 180.628906 265.816406 170.277344 277.136719 C 159.957031 288.480469 146.328125 296.246094 131.949219 299.023438 C 127.832031 299.859375 123.6875 300.214844 119.570312 300.214844 " fill-opacity="1" fill-rule="nonzero"/><path fill="#7ed957" d="M 195.363281 310.578125 C 192.855469 310.578125 190.351562 309.652344 188.324219 307.832031 L 96.1875 223.714844 C 91.921875 219.804688 91.5625 213.175781 95.472656 208.90625 C 99.410156 204.636719 106.03125 204.277344 110.296875 208.191406 L 202.402344 292.304688 C 206.667969 296.246094 207.023438 302.875 203.117188 307.144531 C 201.089844 309.382812 198.226562 310.578125 195.363281 310.578125 " fill-opacity="1" fill-rule="nonzero"/><g clip-path="url(#b48b8a8f94)"><path fill="#7ed957" d="M 174.335938 272.386719 C 185.3125 280.507812 196.347656 287.855469 205.921875 293.707031 C 228.558594 279.734375 266.886719 251.753906 293.910156 222.460938 C 312.644531 202.128906 337.308594 171.132812 335.191406 137.929688 C 333.3125 108.339844 308.675781 78.152344 266.679688 80.300781 C 235.75 81.914062 214.152344 112.820312 213.945312 113.175781 C 211.976562 116.042969 208.785156 117.714844 205.265625 117.714844 C 201.863281 117.714844 198.582031 116.042969 196.613281 113.175781 C 196.40625 112.878906 174.632812 82.125 143.671875 80.71875 C 102.898438 78.898438 78.648438 107.5625 75.785156 136.320312 C 106.179688 137.632812 134.8125 149.546875 157.511719 170.238281 C 164.222656 176.390625 170.277344 183.167969 175.527344 190.511719 C 186.355469 205.621094 190.679688 222.730469 188.175781 240.167969 C 186.414062 251.695312 181.671875 262.800781 174.335938 272.386719 Z M 205.980469 316.371094 C 204.160156 316.371094 202.34375 315.890625 200.761719 314.964844 C 186.773438 306.933594 169.175781 294.960938 152.558594 282.179688 C 150.113281 280.300781 148.625 277.433594 148.414062 274.359375 C 148.296875 271.28125 149.488281 268.265625 151.785156 266.175781 C 160.316406 258.265625 165.804688 247.902344 167.414062 237.003906 C 169.175781 225.121094 166.101562 213.234375 158.554688 202.664062 C 154.140625 196.515625 149.039062 190.78125 143.402344 185.675781 C 122.105469 166.179688 94.425781 156.113281 65.523438 157.21875 C 59.796875 157.429688 54.964844 153.039062 54.636719 147.367188 C 54.398438 144.140625 54.398438 140.855469 54.636719 137.632812 C 55.800781 116.191406 65.226562 96.398438 81.035156 81.855469 C 97.707031 66.539062 120.289062 58.714844 144.597656 59.757812 C 172.722656 61.011719 194.050781 78.898438 205.207031 90.78125 C 216.300781 78.839844 237.476562 60.804688 265.546875 59.339844 C 289.855469 58.085938 312.433594 65.761719 329.257812 80.929688 C 345.183594 95.351562 354.667969 115.117188 356.070312 136.527344 C 358.664062 177.792969 330.660156 213.386719 309.273438 236.585938 C 281.773438 266.503906 239.089844 298.605469 211.230469 314.90625 C 209.621094 315.890625 207.800781 316.371094 205.980469 316.371094 " fill-opacity="1" fill-rule="nonzero"/></g></svg>