<svg xmlns="http://www.w3.org/2000/svg" xmlns:xlink="http://www.w3.org/1999/xlink" width="1080" zoomAndPan="magnify" viewBox="0 0 810 809.999993" height="1080" preserveAspectRatio="xMidYMid meet" version="1.0"><defs><clipPath id="0f3840ef93"><path d="M 113 126 L 673 126 L 673 719 L 113 719 Z M 113 126 " clip-rule="nonzero"/></clipPath><clipPath id="aac74f0c4a"><path d="M 410.5625 -237.898438 L 997.984375 293.324219 L 399.855469 954.730469 L -187.566406 423.507812 Z M 410.5625 -237.898438 " clip-rule="nonzero"/></clipPath><clipPath id="f1cab27360"><path d="M 997.734375 293.097656 L 410.3125 -238.128906 L -187.816406 423.277344 L 399.605469 954.503906 Z M 997.734375 293.097656 " clip-rule="nonzero"/></clipPath><clipPath id="acfe2d687a"><path d="M 198 236.128906 L 613.132812 236.128906 L 613.132812 524.941406 L 198 524.941406 Z M 198 236.128906 " clip-rule="nonzero"/></clipPath></defs><g clip-path="url(#0f3840ef93)"><g clip-path="url(#aac74f0c4a)"><g clip-path="url(#f1cab27360)"><path fill="#e2ffe8" d="M 667.726562 290.257812 C 733.605469 54.683594 113.113281 92.703125 113.183594 281.367188 C 113.261719 470.035156 183.886719 362.027344 194.972656 460.890625 C 206.066406 559.75 63.511719 650.992188 314.738281 709.933594 C 565.960938 768.878906 601.84375 525.832031 667.730469 290.253906 Z M 667.726562 290.257812 " fill-opacity="1" fill-rule="nonzero"/></g></g></g><path fill="#ffffff" d="M 313.886719 247.925781 C 316.558594 242.632812 322.019531 239.011719 328.375 239.011719 L 453.351562 239.011719 C 462.316406 239.011719 469.617188 246.316406 469.617188 255.292969 L 469.617188 288.152344 C 487.25 282.5625 505.003906 278.347656 530.59375 285.0625 C 541.160156 287.855469 566.867188 294.566406 584.679688 316.96875 C 613.714844 353.511719 605.164062 410.675781 583.253906 445.914062 C 548.878906 501.292969 480.601562 509.492188 449.433594 513.234375 C 383.765625 521.136719 329.917969 499.628906 297.203125 481.148438 L 294.648438 480.613281 L 250.0625 480.613281 L 250.0625 477.167969 L 247.507812 471.996094 L 266.804688 461.003906 C 265.617188 460.054688 264.726562 459.339844 264.015625 458.804688 C 239.96875 439.078125 177.214844 387.621094 185.289062 319.820312 C 189.859375 281.734375 218.714844 236.453125 257.601562 228.847656 C 279.867188 224.511719 296.789062 234.316406 313.886719 247.925781 " fill-opacity="1" fill-rule="nonzero"/><path fill="#008037" d="M 347.492188 404.199219 C 344.34375 404.199219 341.792969 406.753906 341.792969 409.902344 C 341.792969 413.054688 344.34375 415.609375 347.492188 415.609375 C 350.636719 415.609375 353.191406 413.054688 353.191406 409.902344 C 353.191406 406.753906 350.636719 404.199219 347.492188 404.199219 Z M 331.640625 264.382812 C 328.492188 264.382812 325.9375 266.9375 325.9375 270.085938 C 325.9375 273.234375 328.492188 275.789062 331.640625 275.789062 C 334.785156 275.789062 337.339844 273.234375 337.339844 270.085938 C 337.339844 266.9375 334.785156 264.382812 331.640625 264.382812 Z M 331.519531 446.746094 C 328.375 446.746094 325.820312 449.300781 325.820312 452.449219 C 325.820312 455.597656 328.375 458.152344 331.519531 458.152344 C 334.667969 458.152344 337.21875 455.597656 337.21875 452.449219 C 337.21875 449.300781 334.667969 446.746094 331.519531 446.746094 Z M 331.519531 404.199219 C 328.375 404.199219 325.820312 406.753906 325.820312 409.902344 C 325.820312 413.054688 328.375 415.609375 331.519531 415.609375 C 334.667969 415.609375 337.21875 413.054688 337.21875 409.902344 C 337.21875 406.753906 334.667969 404.199219 331.519531 404.199219 Z M 432.214844 323.804688 L 430.078125 324.871094 C 428.710938 325.585938 427.050781 325.050781 426.394531 323.683594 L 419.6875 310.730469 C 418.855469 311.085938 418.023438 311.503906 417.253906 311.859375 C 415.472656 309.660156 412.679688 305.5625 411.136719 299.738281 C 409.949219 295.164062 410.070312 291.179688 410.304688 288.566406 C 412.621094 287.617188 414.9375 286.722656 417.3125 285.714844 C 422.238281 283.695312 424.257812 282.742188 425.386719 283.695312 C 425.742188 283.992188 425.921875 284.347656 425.980469 284.585938 C 425.386719 284.824219 424.792969 285.0625 424.199219 285.238281 C 424.140625 287.257812 424.257812 289.753906 424.851562 292.488281 C 425.980469 298.191406 428.414062 302.410156 430.253906 304.96875 C 430.3125 304.96875 430.671875 305.203125 430.730469 305.621094 C 430.789062 306.035156 430.492188 306.453125 430.078125 306.570312 C 429.066406 306.867188 428.058594 307.226562 427.050781 307.582031 C 429.1875 311.679688 431.324219 315.78125 433.460938 319.882812 C 434.054688 321.425781 433.578125 323.089844 432.214844 323.804688 Z M 529.347656 398.078125 C 527.800781 400.335938 525.191406 403.546875 520.914062 406.695312 L 518.066406 404.199219 C 517.886719 404.082031 517.769531 403.960938 517.589844 403.78125 L 518.066406 403.128906 L 523.289062 395.285156 L 515.988281 389.523438 L 516.699219 391.957031 L 493.011719 391.957031 L 493.011719 403.605469 L 492.65625 403.78125 C 492.121094 403.84375 489.210938 404.257812 486.539062 402.296875 C 486.300781 402.121094 483.808594 400.21875 483.390625 397.007812 C 483.214844 395.523438 483.390625 393.445312 487.609375 387.738281 C 489.390625 385.304688 492 382.09375 495.625 378.648438 C 497.761719 378.171875 499.898438 377.699219 502.035156 377.28125 C 502.449219 378.707031 503.757812 379.71875 505.183594 379.660156 C 506.546875 379.597656 507.792969 378.648438 508.152344 377.28125 L 514.976562 378.054688 C 520.085938 382.09375 524.121094 385.183594 527.742188 387.859375 C 528.988281 388.808594 530.949219 390.234375 531.304688 392.492188 C 531.601562 393.980469 531.128906 395.464844 529.347656 398.078125 " fill-opacity="1" fill-rule="nonzero"/><path fill="#008037" d="M 280.699219 272.761719 L 258.316406 272.761719 C 255.40625 272.761719 252.972656 275.136719 252.972656 278.109375 L 252.972656 293.378906 C 252.972656 296.292969 255.347656 298.726562 258.316406 298.726562 L 264.667969 298.726562 L 269.535156 306.214844 L 273.988281 298.726562 L 280.757812 298.726562 C 283.667969 298.726562 286.101562 296.351562 286.101562 293.378906 L 286.101562 278.050781 C 285.980469 275.136719 283.605469 272.761719 280.699219 272.761719 Z M 526.613281 309.601562 L 526.613281 325.882812 C 526.613281 328.972656 524.0625 331.527344 520.976562 331.527344 L 513.789062 331.527344 L 509.042969 339.488281 L 503.875 331.527344 L 497.105469 331.527344 C 494.019531 331.527344 491.46875 328.972656 491.46875 325.882812 L 491.46875 309.601562 C 491.46875 306.511719 494.019531 303.957031 497.105469 303.957031 L 520.914062 303.957031 C 524.0625 303.957031 526.613281 306.511719 526.613281 309.601562 " fill-opacity="1" fill-rule="nonzero"/><path fill="#545454" d="M 433.402344 321.84375 C 433.460938 321.1875 433.222656 320.652344 433.046875 320.296875 C 432.925781 320.117188 432.984375 319.941406 433.105469 319.820312 C 433.578125 319.289062 433.640625 318.574219 433.34375 317.980469 C 433.046875 317.445312 432.390625 317.089844 431.738281 317.207031 C 431.5625 317.207031 431.382812 317.148438 431.324219 316.96875 C 431.265625 316.792969 431.324219 316.613281 431.5 316.496094 C 432.035156 316.136719 432.214844 315.425781 431.917969 314.890625 C 431.621094 314.414062 430.96875 314.175781 430.433594 314.355469 C 430.195312 314.414062 429.957031 314.355469 429.898438 314.117188 C 429.839844 313.878906 429.898438 313.640625 430.136719 313.582031 C 431.085938 313.226562 432.15625 313.582031 432.628906 314.472656 C 432.984375 315.128906 432.984375 315.839844 432.628906 316.433594 C 433.222656 316.613281 433.816406 316.96875 434.113281 317.5625 C 434.589844 318.394531 434.53125 319.40625 433.996094 320.179688 C 434.234375 320.652344 434.410156 321.308594 434.351562 322.019531 C 434.171875 323.386719 432.925781 324.574219 431.324219 324.992188 C 431.265625 335.6875 430.375 346.382812 428.769531 356.664062 C 427.050781 367.65625 425.625 371.519531 422.832031 372.46875 C 422.359375 372.648438 421.882812 372.707031 421.347656 372.707031 C 415.054688 372.707031 406.863281 360.703125 405.851562 359.21875 C 405.734375 359.039062 405.792969 358.742188 405.972656 358.625 C 406.148438 358.503906 406.386719 358.5625 406.566406 358.742188 C 406.980469 359.335938 416.660156 373.714844 422.535156 371.636719 C 424.613281 370.921875 426.097656 368.308594 427.878906 356.484375 C 429.484375 346.085938 430.3125 335.390625 430.375 324.574219 L 430.375 324.457031 C 430.375 324.457031 430.375 324.398438 430.433594 324.398438 C 430.433594 324.398438 430.433594 324.339844 430.492188 324.339844 L 430.550781 324.277344 L 430.609375 324.21875 L 430.730469 324.21875 C 432.15625 323.921875 433.222656 322.972656 433.402344 321.84375 Z M 416.125 345.730469 L 418.558594 349.589844 L 421.113281 325.46875 C 420.457031 323.863281 419.507812 320.832031 420.695312 317.683594 C 421.707031 314.949219 424.082031 312.75 425.328125 312.394531 C 425.625 312.277344 425.921875 312.335938 426.097656 312.453125 C 426.574219 312.75 426.753906 313.464844 424.4375 317.859375 C 424.316406 318.039062 424.082031 318.160156 423.902344 318.039062 C 423.722656 317.921875 423.605469 317.683594 423.722656 317.503906 C 425.386719 314.355469 425.566406 313.40625 425.566406 313.109375 C 424.972656 313.226562 422.535156 315.1875 421.46875 317.980469 C 420.398438 320.949219 421.289062 323.804688 421.882812 325.230469 C 421.882812 325.289062 421.941406 325.347656 421.941406 325.46875 L 419.269531 350.898438 C 419.269531 351.078125 419.152344 351.195312 418.972656 351.253906 L 418.855469 351.253906 C 418.738281 351.253906 418.558594 351.195312 418.5 351.078125 L 415.410156 346.265625 C 415.292969 346.085938 415.351562 345.789062 415.53125 345.671875 C 415.769531 345.433594 416.003906 345.492188 416.125 345.730469 Z M 507.4375 400.277344 C 507.4375 401.40625 506.546875 402.296875 505.417969 402.296875 C 504.292969 402.296875 503.402344 401.40625 503.402344 400.277344 C 503.402344 399.148438 504.292969 398.257812 505.417969 398.257812 C 506.546875 398.257812 507.4375 399.148438 507.4375 400.277344 Z M 520.203125 473.898438 C 520.203125 473.898438 520.261719 473.898438 520.203125 473.898438 C 520.261719 473.898438 520.261719 473.898438 520.203125 473.898438 L 522.28125 473.898438 L 522.28125 479.007812 L 516.996094 479.007812 L 516.996094 473.601562 C 517.945312 473.78125 519.015625 473.898438 520.203125 473.898438 Z M 506.488281 470.75 C 505.242188 470.570312 503.996094 470.511719 502.746094 470.511719 L 502.214844 470.511719 C 502.035156 470.511719 501.796875 470.511719 501.621094 470.570312 L 501.203125 470.570312 C 500.730469 470.570312 500.3125 470.632812 499.839844 470.691406 C 499.660156 470.691406 499.480469 470.75 499.304688 470.75 C 499.125 470.75 499.007812 470.808594 498.828125 470.808594 L 498.769531 470.808594 C 496.691406 471.105469 494.554688 471.640625 492.359375 472.355469 C 493.25 462.371094 493.84375 452.328125 494.199219 442.347656 C 494.554688 431.59375 494.613281 420.660156 494.375 409.902344 L 513.554688 409.902344 C 513.195312 410.496094 513.019531 411.09375 513.257812 411.507812 C 513.375 411.6875 513.613281 411.921875 514.148438 412.042969 C 514.265625 412.042969 514.445312 412.101562 514.621094 412.101562 C 515.570312 412.101562 516.9375 411.6875 518.066406 410.972656 C 520.144531 420.421875 521.867188 429.988281 523.171875 439.554688 C 524.65625 450.546875 525.664062 461.777344 526.140625 472.949219 C 524.894531 473.125 523.644531 473.1875 522.398438 473.1875 C 521.746094 473.1875 521.035156 473.1875 520.382812 473.125 L 520.261719 473.125 C 519.074219 473.066406 517.828125 472.949219 516.640625 472.769531 L 516.460938 472.769531 C 514.445312 472.472656 512.664062 472.058594 511 471.699219 C 509.457031 471.285156 508.03125 470.988281 506.488281 470.75 Z M 501.144531 471.34375 C 501.144531 471.34375 501.203125 471.34375 501.144531 471.34375 C 501.621094 471.34375 502.035156 471.285156 502.511719 471.285156 C 503.105469 471.285156 503.636719 471.285156 504.230469 471.34375 L 504.230469 479.070312 L 499.304688 479.070312 L 499.304688 471.523438 C 499.898438 471.464844 500.550781 471.402344 501.144531 471.34375 Z M 493.25 392.550781 L 517.53125 392.550781 L 517.53125 404.378906 C 514.324219 405.625 513.730469 406.277344 513.851562 406.933594 C 513.910156 407.40625 514.382812 407.644531 515.335938 407.824219 L 515.15625 408.003906 L 493.308594 408.003906 Z M 529.582031 481.742188 C 528.988281 480.910156 527.980469 480.851562 527.03125 480.734375 C 525.960938 480.613281 524.597656 480.316406 522.875 479.722656 C 522.933594 479.664062 522.992188 479.542969 522.992188 479.425781 L 522.992188 473.839844 C 524.179688 473.78125 525.367188 473.722656 526.496094 473.542969 C 526.734375 473.542969 526.851562 473.304688 526.851562 473.125 C 526.378906 461.835938 525.425781 450.488281 523.882812 439.316406 C 522.578125 429.632812 520.796875 419.828125 518.660156 410.261719 C 520.023438 408.953125 520.441406 407.289062 520.558594 406.339844 C 520.558594 406.101562 520.441406 405.921875 520.203125 405.863281 C 519.964844 405.804688 519.789062 405.980469 519.726562 406.21875 C 519.609375 407.050781 519.253906 408.65625 517.945312 409.785156 C 516.820312 410.792969 515.097656 411.269531 514.148438 411.09375 C 513.910156 411.03125 513.851562 410.972656 513.789062 410.972656 C 513.613281 410.734375 514.445312 409.429688 516.34375 407.703125 C 516.460938 407.585938 516.523438 407.40625 516.460938 407.289062 C 516.402344 407.109375 516.285156 407.050781 516.105469 406.992188 C 514.976562 406.871094 514.621094 406.695312 514.503906 406.636719 C 514.621094 406.457031 515.214844 405.921875 518.183594 404.792969 C 518.421875 404.734375 518.480469 404.496094 518.421875 404.257812 C 518.363281 404.140625 518.304688 404.082031 518.242188 404.019531 L 518.242188 391.957031 C 518.242188 391.722656 518.066406 391.542969 517.828125 391.542969 L 492.714844 391.542969 C 492.476562 391.542969 492.296875 391.722656 492.296875 391.957031 L 492.296875 408.238281 C 492.296875 408.476562 492.476562 408.65625 492.714844 408.65625 L 492.714844 409.726562 L 493.367188 409.726562 C 493.605469 420.480469 493.546875 431.355469 493.1875 442.109375 C 492.832031 452.269531 492.179688 462.550781 491.289062 472.710938 C 491.289062 472.828125 491.347656 473.007812 491.46875 473.066406 C 491.585938 473.125 491.703125 473.1875 491.882812 473.125 C 494.078125 472.355469 496.21875 471.820312 498.355469 471.464844 L 498.355469 479.367188 C 496.691406 479.902344 495.386719 480.136719 494.4375 480.257812 C 493.1875 480.375 492.179688 480.375 491.46875 481.148438 C 490.933594 481.683594 490.8125 482.457031 490.753906 482.929688 L 504.824219 482.929688 L 504.824219 479.78125 C 504.886719 479.722656 504.945312 479.605469 504.945312 479.484375 L 504.945312 471.402344 C 505.359375 471.464844 505.835938 471.464844 506.25 471.523438 C 507.734375 471.761719 509.160156 472.058594 510.644531 472.414062 C 512.246094 472.769531 513.96875 473.1875 515.988281 473.484375 L 515.988281 479.425781 C 515.988281 479.542969 516.046875 479.664062 516.164062 479.722656 L 516.164062 483.050781 L 529.878906 483.527344 C 530.058594 483.109375 530 482.335938 529.582031 481.742188 Z M 498.886719 368.605469 C 498.414062 366.941406 498.355469 365.101562 498.710938 363.378906 C 498.710938 363.257812 498.828125 363.140625 498.949219 363.082031 C 500.136719 362.664062 501.261719 362.011719 502.273438 361.238281 C 503.460938 360.289062 504.46875 359.160156 505.242188 357.792969 C 505.300781 357.671875 505.417969 357.613281 505.597656 357.613281 C 505.714844 357.613281 505.894531 357.671875 505.953125 357.792969 C 506.726562 358.742188 507.558594 359.691406 508.449219 360.523438 C 509.515625 361.535156 510.703125 362.425781 511.949219 363.199219 C 512.070312 363.257812 512.128906 363.378906 512.128906 363.496094 C 512.367188 365.277344 512.367188 367.953125 511.117188 370.804688 C 510.523438 372.171875 509.636719 373.417969 508.625 374.488281 L 508.625 377.519531 C 508.625 377.757812 508.449219 377.933594 508.210938 377.933594 C 507.972656 377.933594 507.792969 377.757812 507.792969 377.519531 L 507.792969 374.371094 C 507.792969 374.25 507.855469 374.132812 507.914062 374.074219 C 508.980469 373.003906 509.8125 371.816406 510.40625 370.507812 C 511.59375 367.953125 511.59375 365.515625 511.414062 363.851562 C 510.167969 363.082031 509.042969 362.1875 507.972656 361.179688 C 507.199219 360.464844 506.429688 359.632812 505.714844 358.859375 C 504.945312 360.050781 503.996094 361.121094 502.808594 362.011719 C 501.796875 362.78125 500.667969 363.4375 499.480469 363.910156 C 499.246094 365.457031 499.304688 367.0625 499.71875 368.546875 C 500.3125 370.804688 501.5 372.410156 502.390625 373.300781 C 502.449219 373.359375 502.511719 373.480469 502.511719 373.597656 L 502.511719 377.578125 C 502.511719 377.816406 502.332031 377.996094 502.09375 377.996094 C 501.855469 377.996094 501.679688 377.816406 501.679688 377.578125 L 501.679688 373.777344 C 500.730469 372.585938 499.480469 370.921875 498.886719 368.605469 Z M 274.820312 286.070312 C 274.820312 285 275.710938 284.109375 276.78125 284.109375 C 277.847656 284.109375 278.738281 285 278.738281 286.070312 C 278.738281 287.140625 277.847656 288.03125 276.78125 288.03125 C 275.710938 288.03125 274.820312 287.199219 274.820312 286.070312 Z M 267.753906 286.070312 C 267.753906 285 268.644531 284.109375 269.714844 284.109375 C 270.78125 284.109375 271.671875 285 271.671875 286.070312 C 271.671875 287.140625 270.78125 288.03125 269.714844 288.03125 C 268.644531 288.03125 267.753906 287.199219 267.753906 286.070312 Z M 260.628906 286.070312 C 260.628906 285 261.519531 284.109375 262.589844 284.109375 C 263.660156 284.109375 264.550781 285 264.550781 286.070312 C 264.550781 287.140625 263.660156 288.03125 262.589844 288.03125 C 261.519531 288.03125 260.628906 287.199219 260.628906 286.070312 Z M 330.035156 263.847656 C 332.945312 263.847656 335.320312 266.222656 335.320312 269.136719 C 335.320312 272.046875 332.945312 274.421875 330.035156 274.421875 C 327.125 274.421875 324.75 272.046875 324.75 269.136719 C 324.691406 266.222656 327.066406 263.847656 330.035156 263.847656 Z M 330.035156 275.316406 C 333.417969 275.316406 336.152344 272.582031 336.152344 269.195312 C 336.152344 265.808594 333.417969 263.074219 330.035156 263.074219 C 326.652344 263.074219 323.921875 265.808594 323.921875 269.195312 C 323.921875 272.582031 326.652344 275.316406 330.035156 275.316406 Z M 305.457031 465.402344 L 295.363281 465.042969 L 295.066406 460.707031 L 304.210938 465.339844 C 304.328125 465.402344 304.507812 465.402344 304.625 465.339844 L 305.515625 464.808594 Z M 251.132812 480.257812 L 250.417969 480.257812 L 250.417969 478.949219 L 250.953125 480.078125 C 251.011719 480.195312 251.070312 480.257812 251.132812 480.257812 Z M 274.9375 470.867188 L 292.929688 480.257812 L 251.605469 480.257812 Z M 305.871094 466.234375 C 306.109375 466.234375 306.285156 466.054688 306.285156 465.875 L 306.40625 463.976562 C 306.40625 463.796875 306.347656 463.679688 306.226562 463.617188 C 306.109375 463.558594 305.929688 463.558594 305.8125 463.617188 L 304.445312 464.507812 L 294.828125 459.636719 C 294.710938 459.578125 294.53125 459.578125 294.414062 459.636719 C 294.292969 459.695312 294.234375 459.875 294.234375 459.992188 L 294.589844 464.808594 C 293.046875 464.210938 289.960938 463.023438 286.042969 461.539062 L 285.507812 461.359375 C 278.738281 458.746094 277.078125 458.152344 274.640625 458.152344 L 274.582031 458.152344 C 271.199219 458.152344 268.882812 459.339844 264.015625 462.074219 C 258.375 465.164062 252.734375 468.429688 247.210938 471.757812 C 247.035156 471.878906 246.976562 472.117188 247.035156 472.292969 L 249.527344 477.34375 L 249.527344 480.730469 C 249.527344 480.96875 249.707031 481.148438 249.945312 481.148438 L 294.53125 481.148438 L 305.871094 483.40625 L 305.929688 483.40625 C 306.109375 483.40625 306.285156 483.285156 306.347656 483.050781 C 306.40625 482.8125 306.226562 482.632812 306.050781 482.574219 L 294.710938 480.316406 L 275.117188 470.09375 C 275 470.035156 274.878906 470.035156 274.761719 470.09375 L 251.488281 479.484375 L 247.984375 472.292969 C 253.386719 469.085938 258.910156 465.875 264.429688 462.847656 C 269.179688 460.230469 271.4375 459.042969 274.582031 459.042969 L 274.640625 459.042969 C 276.957031 459.042969 278.5625 459.636719 285.210938 462.191406 L 285.683594 462.371094 C 290.199219 464.09375 293.582031 465.402344 294.828125 465.875 L 300.648438 468.730469 C 300.824219 468.847656 301.121094 468.730469 301.179688 468.550781 C 301.300781 468.371094 301.179688 468.074219 301.003906 468.015625 L 296.90625 465.996094 Z M 309.910156 426.957031 C 309.550781 427.550781 308.898438 427.964844 308.128906 428.144531 C 307.949219 428.203125 307.832031 428.324219 307.769531 428.5 C 307.535156 430.285156 307.414062 432.066406 307.472656 433.847656 C 307.535156 435.214844 307.59375 436.582031 307.832031 437.949219 C 301.476562 442.464844 300.46875 441.988281 300.289062 441.871094 C 299.992188 441.632812 300.230469 440.089844 300.46875 438.246094 C 300.527344 437.949219 300.527344 437.710938 300.585938 437.472656 C 300.707031 436.820312 300.765625 436.285156 300.765625 435.511719 C 300.765625 434.679688 300.648438 433.789062 300.46875 432.957031 C 300.410156 432.777344 300.230469 432.660156 300.054688 432.660156 L 299.992188 432.660156 C 298.867188 432.71875 297.976562 432.542969 297.320312 432.066406 C 295.660156 430.816406 295.777344 428.027344 295.898438 425.113281 C 295.957031 423.628906 296.132812 422.082031 296.492188 420.597656 C 297.5 421.3125 298.628906 421.847656 299.875 422.144531 C 302.070312 422.675781 303.972656 422.320312 305.21875 421.964844 C 305.160156 422.679688 305.160156 423.390625 305.277344 424.105469 C 305.398438 424.875 305.515625 425.53125 306.109375 425.828125 C 306.703125 426.125 307.59375 425.945312 308.363281 425.234375 C 309.253906 425.234375 309.910156 425.707031 310.027344 426.125 C 310.144531 426.183594 310.085938 426.597656 309.910156 426.957031 Z M 303.199219 453.515625 L 295.066406 449.359375 C 294.828125 448.109375 294.589844 445.316406 296.253906 442.582031 C 297.203125 441.039062 298.449219 440.027344 299.460938 439.375 C 299.222656 441.039062 299.222656 441.871094 299.695312 442.347656 C 299.875 442.523438 300.113281 442.644531 300.527344 442.644531 C 301.0625 442.644531 301.894531 442.40625 303.140625 441.75 L 303.140625 453.515625 Z M 308.246094 424.222656 C 308.128906 424.222656 308.066406 424.28125 307.949219 424.339844 C 307.355469 424.9375 306.761719 425.113281 306.523438 424.9375 C 306.347656 424.816406 306.226562 424.460938 306.167969 423.808594 C 306.050781 422.976562 306.050781 422.144531 306.167969 421.25 C 306.167969 421.132812 306.109375 420.953125 306.050781 420.835938 C 305.929688 420.71875 305.753906 420.71875 305.632812 420.777344 C 304.625 421.191406 302.546875 421.726562 300.171875 421.132812 C 298.867188 420.835938 297.679688 420.183594 296.609375 419.351562 C 296.492188 419.230469 296.371094 419.230469 296.195312 419.289062 C 296.074219 419.351562 295.957031 419.46875 295.898438 419.585938 C 295.480469 421.3125 295.183594 423.09375 295.125 424.875 C 295.007812 428.027344 294.886719 431.054688 296.847656 432.542969 C 297.558594 433.078125 298.570312 433.375 299.695312 433.375 C 299.816406 434.027344 299.875 434.738281 299.933594 435.394531 C 299.933594 436.105469 299.875 436.582031 299.757812 437.234375 C 299.695312 437.472656 299.695312 437.710938 299.636719 438.066406 C 299.636719 438.1875 299.578125 438.304688 299.578125 438.425781 C 298.390625 439.078125 296.726562 440.207031 295.539062 442.226562 C 293.640625 445.316406 294.054688 448.527344 294.292969 449.773438 C 294.292969 449.890625 294.414062 450.011719 294.53125 450.070312 L 303.4375 454.644531 C 303.496094 454.707031 303.554688 454.707031 303.617188 454.707031 C 303.675781 454.707031 303.792969 454.707031 303.851562 454.644531 C 303.972656 454.585938 304.03125 454.410156 304.03125 454.289062 L 304.03125 441.453125 C 305.160156 440.800781 306.644531 439.851562 308.484375 438.542969 C 308.601562 438.425781 308.660156 438.304688 308.660156 438.128906 C 308.425781 436.699219 308.304688 435.273438 308.304688 433.847656 C 308.246094 432.183594 308.363281 430.582031 308.542969 428.917969 C 309.433594 428.679688 310.207031 428.144531 310.621094 427.429688 C 310.976562 426.835938 311.035156 426.242188 310.859375 425.769531 C 310.5625 424.816406 309.492188 424.222656 308.246094 424.222656 Z M 329.917969 456.785156 C 327.007812 456.785156 324.632812 454.410156 324.632812 451.496094 C 324.632812 448.585938 327.007812 446.207031 329.917969 446.207031 C 332.828125 446.207031 335.199219 448.585938 335.199219 451.496094 C 335.199219 454.410156 332.828125 456.785156 329.917969 456.785156 Z M 329.917969 445.316406 C 326.53125 445.316406 323.800781 448.050781 323.800781 451.4375 C 323.800781 454.824219 326.53125 457.558594 329.917969 457.558594 C 333.300781 457.558594 336.03125 454.824219 336.03125 451.4375 C 336.03125 448.109375 333.300781 445.316406 329.917969 445.316406 Z M 345.886719 414.238281 C 342.980469 414.238281 340.605469 411.863281 340.605469 408.953125 C 340.605469 406.039062 342.980469 403.664062 345.886719 403.664062 C 348.796875 403.664062 351.171875 406.039062 351.171875 408.953125 C 351.230469 411.863281 348.796875 414.238281 345.886719 414.238281 Z M 345.886719 402.773438 C 342.503906 402.773438 339.773438 405.503906 339.773438 408.890625 C 339.773438 412.277344 342.503906 415.011719 345.886719 415.011719 C 349.273438 415.011719 352.003906 412.277344 352.003906 408.890625 C 352.003906 405.566406 349.273438 402.773438 345.886719 402.773438 Z M 329.917969 414.238281 C 327.007812 414.238281 324.632812 411.863281 324.632812 408.953125 C 324.632812 406.039062 327.007812 403.664062 329.917969 403.664062 C 332.828125 403.664062 335.199219 406.039062 335.199219 408.953125 C 335.199219 411.863281 332.828125 414.238281 329.917969 414.238281 Z M 329.917969 402.773438 C 326.53125 402.773438 323.800781 405.503906 323.800781 408.890625 C 323.800781 412.277344 326.53125 415.011719 329.917969 415.011719 C 333.300781 415.011719 336.03125 412.277344 336.03125 408.890625 C 336.03125 405.566406 333.300781 402.773438 329.917969 402.773438 Z M 417.015625 309.183594 C 416.957031 308.945312 417.015625 308.710938 417.253906 308.648438 L 426.515625 304.90625 C 426.753906 304.847656 426.988281 304.90625 427.050781 305.144531 C 427.109375 305.382812 427.050781 305.621094 426.8125 305.679688 L 417.550781 309.421875 C 417.488281 309.421875 417.429688 309.480469 417.371094 309.480469 C 417.253906 309.421875 417.074219 309.363281 417.015625 309.183594 Z M 433.34375 303.660156 C 433.460938 303.835938 433.460938 304.074219 433.28125 304.253906 C 433.222656 304.3125 433.105469 304.3125 433.046875 304.3125 C 432.925781 304.3125 432.808594 304.253906 432.6875 304.132812 C 430.492188 301.222656 428.949219 297.953125 427.941406 294.507812 C 427.167969 291.773438 426.8125 288.980469 426.871094 286.1875 C 426.871094 285.953125 427.050781 285.773438 427.285156 285.773438 C 427.523438 285.773438 427.703125 285.953125 427.703125 286.1875 C 427.644531 288.921875 428 291.65625 428.710938 294.269531 C 429.71875 297.65625 431.265625 300.804688 433.34375 303.660156 Z M 282.777344 444.246094 L 283.132812 444.605469 C 283.546875 445.019531 283.964844 445.375 284.378906 445.734375 L 282.242188 448.585938 C 281.527344 448.347656 280.933594 447.929688 280.460938 447.398438 C 279.390625 446.148438 279.332031 444.484375 279.449219 443.832031 L 279.511719 443.890625 L 280.222656 444.605469 C 280.875 445.199219 281.648438 445.671875 282.480469 446.03125 C 282.597656 446.089844 282.777344 446.089844 282.894531 445.96875 C 283.011719 445.851562 283.074219 445.671875 283.011719 445.554688 C 282.953125 444.960938 282.835938 444.542969 282.777344 444.246094 Z M 277.550781 439.195312 C 277.136719 439.671875 276.71875 440.089844 276.304688 440.5625 L 279.035156 443 C 278.917969 443.117188 278.796875 443.296875 278.738281 443.535156 C 278.5 444.484375 278.679688 446.503906 279.925781 447.929688 C 280.519531 448.644531 281.351562 449.179688 282.359375 449.476562 L 282.480469 449.476562 C 282.597656 449.476562 282.714844 449.417969 282.835938 449.296875 L 285.386719 445.851562 C 285.449219 445.792969 285.507812 445.671875 285.449219 445.554688 C 285.449219 445.4375 285.386719 445.375 285.269531 445.257812 C 284.734375 444.839844 284.261719 444.425781 283.785156 443.949219 L 283.308594 443.476562 C 282.894531 443.058594 282.597656 442.761719 282.242188 442.941406 C 282.183594 442.941406 282.121094 443 282.121094 443.058594 C 280.578125 441.8125 279.035156 440.503906 277.550781 439.195312 Z M 317.6875 300.035156 L 323.800781 300.035156 C 321.484375 302.828125 319.941406 305.796875 317.6875 307.816406 Z M 453.351562 287.851562 C 451.09375 280.363281 447.058594 275.015625 443.96875 271.75 L 448.246094 268.542969 C 450.796875 269.964844 458.277344 274.960938 461.070312 284.703125 C 462.730469 290.46875 462.136719 295.578125 461.128906 299.378906 L 461.128906 299.5 C 460.476562 301.757812 459.703125 303.539062 459.109375 304.726562 L 454.714844 304.847656 C 455.429688 299.203125 455.011719 293.320312 453.351562 287.851562 Z M 444.621094 290.46875 C 446.402344 295.816406 449.371094 300.746094 453.230469 304.90625 L 430.90625 305.382812 C 428.890625 302.589844 427.285156 299.5 426.21875 296.230469 C 425.148438 293.023438 424.613281 289.636719 424.613281 286.25 L 442.839844 272.640625 C 442.128906 278.582031 442.722656 284.765625 444.621094 290.46875 Z M 453.886719 304.371094 C 450.144531 300.332031 447.175781 295.398438 445.453125 290.171875 C 443.078125 283.21875 443.136719 276.917969 443.671875 272.640625 C 446.699219 275.851562 450.441406 280.960938 452.578125 288.089844 C 454.121094 293.320312 454.597656 298.964844 453.886719 304.371094 Z M 464.511719 299.203125 L 462.019531 299.203125 C 463.027344 295.339844 463.503906 290.230469 461.839844 284.523438 C 458.871094 274.125 450.796875 269.015625 448.363281 267.707031 C 448.246094 267.648438 448.066406 267.648438 447.949219 267.769531 L 423.960938 285.714844 C 423.84375 285.773438 423.785156 285.890625 423.785156 286.070312 C 423.785156 289.636719 424.316406 293.140625 425.445312 296.527344 C 426.574219 299.972656 428.234375 303.183594 430.375 306.09375 C 430.433594 306.214844 430.550781 306.273438 430.730469 306.273438 L 459.347656 305.679688 C 459.523438 305.679688 459.644531 305.621094 459.703125 305.441406 C 460.296875 304.3125 461.1875 302.46875 461.839844 300.09375 L 464.570312 300.09375 L 464.570312 395.582031 L 410.664062 395.582031 C 410.839844 395.523438 410.960938 395.285156 410.898438 395.105469 L 405.378906 376.269531 C 405.320312 376.03125 405.082031 375.914062 404.84375 375.972656 C 404.605469 376.03125 404.488281 376.269531 404.546875 376.507812 L 405.554688 380.015625 L 366.550781 380.015625 L 368.449219 376.566406 C 368.566406 376.390625 368.507812 376.09375 368.269531 376.03125 C 368.09375 375.914062 367.796875 375.972656 367.738281 376.210938 L 363.285156 384.113281 L 350.339844 360.941406 L 353.132812 356.839844 C 353.25 356.660156 353.191406 356.425781 353.011719 356.246094 C 352.835938 356.125 352.597656 356.1875 352.417969 356.363281 L 349.507812 360.644531 C 349.449219 360.761719 349.390625 360.941406 349.507812 361.058594 L 362.867188 384.886719 C 362.808594 385.066406 362.867188 385.242188 363.046875 385.363281 L 363.164062 385.363281 L 363.996094 386.847656 C 363.996094 386.90625 363.9375 386.964844 363.996094 387.027344 C 364.054688 387.203125 364.234375 387.382812 364.410156 387.382812 L 364.472656 387.382812 C 366.132812 388.15625 367.675781 389.105469 369.042969 390.292969 C 370.882812 391.777344 372.25 393.324219 372.425781 393.859375 C 372.128906 393.859375 371.179688 393.738281 368.09375 392.375 C 367.972656 392.3125 367.796875 392.3125 367.675781 392.433594 C 367.558594 392.550781 367.5 392.671875 367.5 392.847656 C 367.738281 394.097656 368.152344 395.34375 368.746094 396.53125 C 369.519531 398.078125 370.527344 399.503906 371.773438 400.691406 C 369.875 400.632812 366.609375 400.15625 363.640625 397.78125 C 360.613281 395.402344 359.484375 392.3125 359.007812 390.648438 C 359.007812 390.53125 358.949219 390.472656 358.832031 390.414062 C 353.429688 386.667969 348.441406 382.390625 344.046875 377.578125 C 337.042969 369.972656 333.65625 366.050781 333.65625 360.40625 C 333.65625 354.164062 337.933594 349.234375 341.554688 346.144531 C 341.730469 346.023438 341.730469 345.726562 341.613281 345.550781 C 341.496094 345.371094 341.199219 345.371094 341.019531 345.492188 C 340.960938 345.550781 340.902344 345.550781 340.902344 345.609375 C 340.605469 345.371094 340.367188 345.074219 340.070312 344.835938 C 344.878906 339.191406 349.152344 334.855469 352.417969 331.765625 C 358.652344 325.761719 361.085938 324.335938 362.808594 323.445312 C 368.210938 320.710938 373.378906 320.296875 376.820312 320.296875 C 376.820312 320.472656 376.9375 320.652344 377.117188 320.710938 L 377.234375 320.710938 C 377.414062 320.710938 377.59375 320.59375 377.652344 320.414062 C 378.601562 317.5625 379.136719 314.53125 379.3125 311.5625 C 379.492188 308.351562 379.195312 305.085938 378.421875 301.933594 C 378.363281 301.816406 378.304688 301.699219 378.1875 301.636719 C 375.160156 300.449219 373.140625 298.3125 373.316406 296.585938 C 373.316406 296.351562 373.4375 295.519531 374.148438 294.921875 C 375.039062 294.09375 376.464844 293.972656 377.890625 294.566406 C 377.949219 294.566406 378.007812 294.625 378.066406 294.566406 C 380.738281 294.328125 384.71875 293.4375 388.695312 290.644531 C 392.613281 287.851562 394.808594 284.34375 395.9375 281.671875 C 397.007812 283.21875 398.253906 284.585938 399.796875 285.714844 C 400.746094 286.425781 401.816406 287.082031 402.882812 287.613281 C 403.003906 290.585938 402.945312 293.617188 402.707031 296.527344 C 402.230469 304.015625 401.164062 306.152344 400.152344 307.28125 C 398.964844 308.589844 397.363281 309.480469 395.285156 309.957031 C 395.105469 310.015625 394.988281 310.136719 394.988281 310.253906 C 394.511719 312.15625 394.335938 314.058594 394.394531 316.019531 C 394.453125 317.503906 394.632812 318.988281 394.988281 320.414062 C 395.046875 320.652344 395.285156 320.773438 395.464844 320.710938 C 395.699219 320.652344 395.820312 320.414062 395.761719 320.238281 C 395.402344 318.871094 395.226562 317.445312 395.167969 316.019531 C 395.105469 314.234375 395.285156 312.453125 395.699219 310.730469 C 397.777344 310.195312 399.441406 309.242188 400.6875 307.816406 C 401.636719 306.75 402.585938 305.023438 403.179688 299.914062 L 408.167969 299.914062 C 408.289062 300.390625 408.40625 300.925781 408.585938 301.402344 C 409.535156 304.550781 410.960938 307.582031 412.800781 310.375 C 412.859375 310.492188 413.039062 310.550781 413.15625 310.550781 C 413.214844 310.550781 413.273438 310.550781 413.335938 310.492188 L 415.648438 309.480469 C 415.886719 309.363281 415.945312 309.125 415.886719 308.945312 C 415.769531 308.710938 415.53125 308.648438 415.351562 308.710938 L 413.335938 309.601562 C 411.671875 306.984375 410.304688 304.132812 409.414062 301.164062 C 408.585938 298.488281 408.109375 295.695312 407.929688 292.84375 L 410.484375 291.714844 C 410.722656 291.597656 410.78125 291.359375 410.664062 291.179688 C 410.542969 290.941406 410.304688 290.882812 410.128906 291.003906 L 407.335938 292.25 C 407.160156 292.308594 407.101562 292.488281 407.101562 292.664062 C 407.21875 294.863281 407.515625 297.003906 407.992188 299.144531 L 403.300781 299.144531 C 403.359375 298.371094 403.417969 297.539062 403.539062 296.585938 C 403.65625 294.746094 403.714844 292.902344 403.714844 291.003906 C 405.082031 289.042969 406.804688 285.714844 406.089844 282.089844 C 404.785156 275.554688 395.878906 271.511719 388.992188 271.511719 C 376.167969 271.570312 375.515625 285.535156 358.710938 291.714844 C 343.75 297.242188 335.855469 289.101562 326.652344 297.0625 C 325.878906 297.714844 325.226562 298.429688 324.574219 299.144531 C 324.515625 299.082031 324.394531 299.023438 324.277344 299.023438 L 317.804688 299.023438 L 317.804688 255.054688 L 464.632812 255.054688 L 464.632812 299.203125 Z M 399.558594 380.785156 C 399.855469 381.796875 400.808594 384.054688 403.242188 385.300781 C 404.546875 386.015625 405.914062 386.195312 406.863281 386.195312 L 407.398438 386.195312 L 410.070312 395.285156 C 410.128906 395.402344 410.246094 395.523438 410.367188 395.523438 L 386.320312 395.523438 L 388.160156 392.789062 C 388.21875 392.730469 388.21875 392.671875 388.21875 392.550781 L 388.21875 380.726562 L 399.558594 380.726562 Z M 407.160156 385.363281 C 406.269531 385.421875 404.960938 385.300781 403.65625 384.589844 C 401.695312 383.519531 400.808594 381.738281 400.449219 380.785156 L 405.792969 380.785156 Z M 387.390625 380.785156 L 387.390625 392.433594 L 385.964844 394.570312 L 385.964844 380.785156 Z M 363.757812 384.886719 L 366.074219 380.785156 L 372.011719 380.785156 C 371.417969 381.976562 370.46875 383.402344 368.804688 384.648438 C 367.617188 385.539062 366.191406 386.195312 364.648438 386.550781 Z M 317.6875 396.355469 L 359.484375 396.355469 C 359.722656 396.355469 359.898438 396.175781 359.898438 395.9375 C 359.898438 395.699219 359.722656 395.523438 359.484375 395.523438 L 317.6875 395.523438 L 317.6875 359.691406 C 321.1875 361 326.058594 361.832031 332.886719 361.890625 C 333.480469 367.417969 337.515625 371.8125 343.394531 378.230469 C 347.789062 383.042969 352.773438 387.324219 358.179688 391.066406 C 358.652344 392.847656 359.898438 395.996094 363.046875 398.492188 C 366.371094 401.167969 370.050781 401.582031 372.011719 401.582031 L 372.785156 401.582031 C 372.960938 401.582031 373.082031 401.464844 373.140625 401.285156 C 373.199219 401.109375 373.140625 400.929688 373.019531 400.8125 C 371.476562 399.503906 370.289062 397.957031 369.398438 396.175781 C 368.984375 395.34375 368.628906 394.453125 368.449219 393.503906 C 372.191406 395.167969 372.84375 394.808594 373.140625 394.394531 C 373.792969 393.382812 370.824219 390.769531 369.519531 389.699219 C 368.332031 388.6875 367.023438 387.855469 365.660156 387.144531 C 366.964844 386.726562 368.210938 386.132812 369.339844 385.300781 C 371.300781 383.875 372.367188 382.09375 372.960938 380.785156 L 385.132812 380.785156 L 385.132812 395.523438 L 369.875 395.523438 C 369.636719 395.523438 369.457031 395.699219 369.457031 395.9375 C 369.457031 396.175781 369.636719 396.355469 369.875 396.355469 L 464.511719 396.355469 L 464.511719 465.875 L 317.6875 465.875 Z M 469.203125 468.3125 C 469.203125 477.046875 462.078125 484.179688 453.351562 484.179688 L 328.375 484.179688 C 319.644531 484.179688 312.519531 477.046875 312.519531 468.3125 L 312.519531 356.722656 C 313.648438 357.671875 315.074219 358.5625 316.855469 359.335938 L 316.855469 466.292969 C 316.855469 466.53125 317.035156 466.707031 317.269531 466.707031 L 464.929688 466.707031 C 465.164062 466.707031 465.34375 466.53125 465.34375 466.292969 L 465.34375 254.636719 C 465.34375 254.398438 465.164062 254.21875 464.929688 254.21875 L 317.269531 254.21875 C 317.035156 254.21875 316.855469 254.398438 316.855469 254.636719 L 316.855469 308.53125 C 315.726562 309.363281 314.421875 310.015625 312.816406 310.3125 C 312.699219 310.3125 312.582031 310.371094 312.519531 310.371094 L 312.519531 255.289062 C 312.519531 246.554688 319.644531 239.425781 328.375 239.425781 L 453.351562 239.425781 C 462.078125 239.425781 469.203125 246.554688 469.203125 255.289062 Z M 323.800781 239.246094 C 316.796875 241.207031 311.691406 247.683594 311.691406 255.289062 L 311.691406 310.492188 C 307.652344 310.96875 305.457031 309.480469 301.835938 311.382812 C 297.617188 313.582031 294.589844 319.046875 295.304688 323.683594 C 296.015625 328.316406 299.875 328.792969 303.914062 334.378906 C 309.730469 342.402344 306.644531 348.402344 310.144531 353.988281 C 310.5625 354.640625 311.035156 355.296875 311.691406 355.949219 L 311.691406 468.3125 C 311.691406 477.523438 319.171875 485.011719 328.375 485.011719 L 453.351562 485.011719 C 462.554688 485.011719 470.035156 477.523438 470.035156 468.3125 L 470.035156 255.289062 C 470.035156 246.078125 462.554688 238.59375 453.351562 238.59375 L 328.375 238.59375 C 326.769531 238.652344 325.285156 238.832031 323.800781 239.246094 " fill-opacity="1" fill-rule="nonzero"/><path fill="#ffffff" d="M 506.84375 313.9375 L 507.140625 310.847656 L 508.683594 311.085938 L 510.226562 314.238281 L 509.929688 315.78125 L 514.976562 315.367188 L 515.75 316.910156 L 515.039062 318.988281 L 516.164062 319.882812 L 515.273438 321.722656 L 515.570312 323.683594 L 513.375 325.050781 L 505.65625 324.753906 L 506.308594 321.722656 L 506.84375 313.9375 " fill-opacity="1" fill-rule="nonzero"/><path fill="#545454" d="M 224.175781 325.644531 C 223.996094 325.765625 223.9375 326 224.058594 326.179688 C 224.414062 326.773438 224.355469 327.25 224.292969 327.488281 C 224.058594 328.558594 222.75 329.328125 221.207031 329.328125 L 214.617188 329.328125 L 214.617188 319.40625 C 214.855469 318.515625 214.972656 317.5625 215.035156 316.613281 L 215.035156 315.367188 C 215.035156 314.652344 215.035156 314.175781 215.210938 314.058594 C 215.449219 313.878906 216.101562 314.117188 216.519531 314.355469 C 218.355469 315.484375 218.003906 318.929688 217.941406 319.347656 C 217.941406 319.464844 217.941406 319.585938 218.058594 319.644531 C 218.121094 319.703125 218.238281 319.761719 218.355469 319.761719 C 219.722656 319.761719 221.027344 319.644531 222.277344 319.523438 L 222.394531 319.523438 C 223.105469 319.40625 223.761719 319.347656 224.117188 319.703125 C 224.355469 319.941406 224.414062 320.296875 224.472656 320.535156 C 224.652344 321.367188 224.234375 322.140625 224.058594 322.496094 C 223.996094 322.613281 223.996094 322.734375 223.996094 322.851562 C 224.058594 322.972656 224.117188 323.089844 224.234375 323.089844 C 224.472656 323.148438 224.828125 323.328125 225.007812 323.683594 C 225.246094 324.277344 225.007812 325.109375 224.175781 325.644531 Z M 224.949219 322.554688 C 225.183594 322.019531 225.421875 321.25 225.304688 320.417969 C 225.246094 320.058594 225.125 319.523438 224.652344 319.109375 C 223.996094 318.515625 223.105469 318.632812 222.277344 318.753906 L 222.15625 318.753906 C 221.089844 318.871094 219.960938 318.988281 218.773438 318.988281 C 218.832031 317.742188 218.773438 314.832031 216.871094 313.703125 C 216.636719 313.582031 215.449219 312.871094 214.675781 313.40625 C 214.144531 313.761719 214.144531 314.472656 214.144531 315.425781 L 214.144531 316.613281 C 214.082031 317.503906 213.964844 318.457031 213.785156 319.289062 L 213.785156 319.40625 L 210.460938 319.40625 L 210.460938 330.21875 L 221.148438 330.21875 C 223.105469 330.21875 224.710938 329.152344 225.007812 327.726562 C 225.066406 327.367188 225.066406 326.832031 224.828125 326.179688 C 225.71875 325.46875 226.074219 324.339844 225.660156 323.445312 C 225.542969 322.972656 225.246094 322.734375 224.949219 322.554688 Z M 270.664062 361.238281 L 262.589844 369.320312 L 254.515625 361.238281 C 252.496094 358.980469 252.613281 355.535156 254.691406 353.394531 C 256.832031 351.253906 260.332031 351.136719 262.589844 353.15625 C 264.726562 351.253906 267.8125 351.078125 269.832031 352.5625 C 272.386719 354.34375 272.980469 358.386719 270.664062 361.238281 Z M 506.84375 315.78125 C 507.023438 315.007812 507.140625 314.175781 507.199219 313.34375 L 507.199219 312.277344 C 507.199219 311.742188 507.199219 311.265625 507.320312 311.148438 C 507.496094 311.027344 508.03125 311.207031 508.386719 311.382812 C 509.929688 312.335938 509.632812 315.304688 509.632812 315.601562 C 509.632812 315.722656 509.632812 315.839844 509.753906 315.898438 C 509.8125 315.960938 509.929688 316.019531 510.050781 316.019531 C 511.238281 316.019531 512.367188 315.960938 513.433594 315.78125 L 513.554688 315.78125 C 514.148438 315.722656 514.679688 315.601562 514.976562 315.898438 C 515.15625 316.078125 515.214844 316.375 515.273438 316.613281 C 515.394531 317.328125 515.097656 317.980469 514.917969 318.277344 C 514.859375 318.394531 514.859375 318.515625 514.859375 318.632812 C 514.917969 318.753906 514.976562 318.871094 515.097656 318.871094 C 515.214844 318.929688 515.570312 319.050781 515.691406 319.40625 C 515.867188 319.820312 515.691406 320.535156 514.976562 321.011719 C 514.800781 321.128906 514.742188 321.367188 514.859375 321.546875 C 515.097656 322.019531 515.097656 322.378906 515.097656 322.613281 C 514.917969 323.507812 513.789062 324.160156 512.484375 324.160156 L 506.84375 324.160156 Z M 506.429688 325.109375 L 512.484375 325.109375 C 514.207031 325.109375 515.632812 324.160156 515.867188 322.910156 C 515.929688 322.613281 515.929688 322.140625 515.75 321.605469 C 516.523438 320.949219 516.820312 320 516.460938 319.226562 C 516.285156 318.871094 516.046875 318.632812 515.808594 318.515625 C 516.046875 318.039062 516.226562 317.386719 516.105469 316.671875 C 516.046875 316.375 515.988281 315.898438 515.570312 315.484375 C 514.976562 314.949219 514.207031 315.070312 513.492188 315.128906 L 513.375 315.128906 C 512.484375 315.246094 511.535156 315.304688 510.523438 315.304688 C 510.585938 314.175781 510.523438 311.742188 508.863281 310.730469 C 508.566406 310.550781 507.617188 310.019531 506.902344 310.492188 C 506.429688 310.847656 506.429688 311.445312 506.429688 312.277344 L 506.429688 313.285156 C 506.371094 314.058594 506.25 314.832031 506.074219 315.601562 L 506.074219 315.722656 L 503.28125 315.722656 L 503.28125 325.050781 L 506.25 325.050781 C 506.308594 325.109375 506.371094 325.109375 506.429688 325.109375 Z M 517.292969 374.191406 L 508.152344 374.191406 C 508.921875 373.417969 509.871094 372.230469 510.644531 370.566406 C 512.007812 367.535156 511.832031 364.742188 511.652344 363.496094 C 510.585938 362.84375 509.335938 361.949219 508.089844 360.761719 C 507.023438 359.8125 506.191406 358.859375 505.539062 358.03125 C 505.003906 358.921875 504.054688 360.347656 502.449219 361.59375 C 501.144531 362.605469 499.898438 363.199219 499.007812 363.496094 C 498.828125 364.507812 498.652344 366.347656 499.183594 368.546875 C 499.839844 371.101562 501.203125 372.707031 501.976562 373.480469 L 501.976562 374.191406 L 493.960938 374.191406 C 492.65625 371.160156 492.714844 368.960938 493.308594 367.359375 C 493.902344 365.695312 494.734375 365.574219 495.859375 363.316406 C 497.523438 360.050781 496.511719 358.742188 497.820312 356.839844 C 499.839844 353.808594 504.46875 353.75 505.417969 353.691406 C 509.160156 353.632812 514.148438 355.355469 515.273438 358.742188 C 516.164062 361.296875 514.148438 362.722656 515.453125 365.753906 C 516.226562 367.597656 517.414062 368.011719 517.828125 369.914062 C 518.183594 371.578125 517.710938 373.121094 517.292969 374.191406 Z M 370.824219 270.5625 L 340.367188 270.5625 L 340.367188 268.1875 L 370.824219 268.1875 Z M 313.707031 424.046875 C 314.003906 427.253906 311.691406 430.582031 307.890625 431.710938 C 307.949219 430.582031 308.007812 429.511719 308.1875 428.503906 C 309.96875 428.203125 310.800781 426.71875 310.503906 425.769531 C 310.265625 425.113281 309.375 424.582031 308.246094 424.640625 C 307.535156 425.292969 306.820312 425.589844 306.285156 425.292969 C 305.929688 425.113281 305.8125 424.582031 305.691406 423.867188 C 305.574219 423.273438 305.515625 422.324219 305.691406 421.195312 C 304.863281 421.550781 302.664062 422.203125 299.992188 421.550781 C 298.210938 421.132812 296.964844 420.242188 296.253906 419.707031 C 295.957031 420.777344 295.777344 421.789062 295.660156 422.738281 C 294.886719 421.253906 294.175781 419.707031 293.402344 418.222656 C 295.957031 414.121094 300.648438 412.222656 304.625 413.46875 C 308.542969 414.65625 310.144531 418.460938 310.441406 419.054688 C 310.859375 419.351562 313.410156 421.074219 313.707031 424.046875 Z M 340.1875 450.191406 L 372.25 450.191406 L 372.25 452.746094 L 340.1875 452.746094 Z M 357.167969 438.128906 L 325.109375 438.128906 L 325.109375 435.574219 L 357.167969 435.574219 Z M 325.109375 428.085938 L 456.617188 428.085938 L 456.617188 430.640625 L 325.109375 430.640625 Z M 325.109375 420.539062 L 456.617188 420.539062 L 456.617188 423.332031 L 325.109375 423.332031 Z M 356.21875 411.152344 L 406.863281 411.152344 L 406.863281 413.824219 L 356.21875 413.824219 Z M 386.675781 404.4375 L 386.675781 406.8125 L 356.21875 406.8125 L 356.21875 404.4375 Z M 408.109375 474.019531 C 408.109375 475.859375 406.625 477.40625 404.726562 477.40625 L 376.878906 477.40625 C 375.039062 477.40625 373.496094 475.917969 373.496094 474.019531 C 373.496094 472.175781 374.980469 470.632812 376.878906 470.632812 L 404.726562 470.632812 C 406.566406 470.691406 408.109375 472.175781 408.109375 474.019531 Z M 374.445312 248.457031 L 408.40625 248.457031 C 409.414062 248.457031 410.1875 247.683594 410.1875 246.675781 C 410.1875 245.664062 409.414062 244.894531 408.40625 244.894531 L 374.445312 244.894531 C 373.4375 244.894531 372.664062 245.664062 372.664062 246.675781 C 372.664062 247.683594 373.496094 248.457031 374.445312 248.457031 Z M 564.910156 378.765625 L 554.816406 368.664062 C 552.324219 365.871094 552.382812 361.535156 555.054688 358.859375 C 557.726562 356.1875 562.058594 356.007812 564.910156 358.5625 C 567.640625 356.1875 571.441406 355.949219 573.992188 357.792969 C 577.140625 360.050781 577.910156 365.101562 575.003906 368.664062 Z M 250.894531 479.367188 C 250.597656 479.484375 250.300781 479.605469 250.003906 479.78125 L 250.003906 480.199219 L 249.054688 480.199219 C 248.101562 480.671875 247.09375 481.207031 246.023438 481.800781 C 244.601562 482.632812 243.351562 483.527344 242.285156 484.355469 C 241.453125 482.929688 240.679688 481.625 239.96875 480.4375 C 238.246094 480.496094 236.582031 480.496094 234.863281 480.554688 C 234.449219 469.382812 234.683594 463.738281 235.636719 463.621094 C 236.285156 463.558594 237.296875 466.175781 238.660156 471.582031 C 239.195312 472.058594 239.789062 472.53125 240.382812 473.1875 L 247.925781 473.1875 L 249.707031 476.394531 L 249.765625 477.226562 C 250.179688 477.941406 250.535156 478.652344 250.894531 479.367188 " fill-opacity="1" fill-rule="nonzero"/><path fill="#008037" d="M 448.007812 296.171875 C 450.261719 294.269531 452.578125 292.308594 454.835938 290.410156 C 454.953125 290.171875 456.082031 288.210938 455.191406 285.894531 C 454.359375 283.695312 452.28125 282.921875 452.042969 282.804688 C 449.3125 282.921875 446.523438 283.039062 443.792969 283.160156 C 444.027344 285.0625 444.445312 287.4375 445.335938 290.050781 C 446.105469 292.488281 447.058594 294.507812 448.007812 296.171875 Z M 475.851562 479.664062 C 475.851562 473.78125 471.636719 469.144531 466.648438 468.609375 C 462.96875 468.253906 459.226562 470.273438 457.03125 473.722656 C 453.945312 471.523438 449.90625 471.105469 446.523438 472.652344 C 442.128906 474.671875 441 479.070312 440.824219 479.664062 C 438.152344 480.078125 436.191406 482.457031 436.25 485.128906 C 436.3125 487.921875 438.566406 490.238281 441.417969 490.359375 L 475.792969 490.359375 C 478.820312 490.417969 481.316406 488.101562 481.492188 485.308594 C 481.730469 482.335938 479.117188 479.605469 475.851562 479.664062 Z M 319.171875 460.945312 C 319.46875 455.953125 320.65625 447.515625 317.269531 442.703125 C 315.609375 440.328125 313.292969 439.136719 313.292969 439.136719 C 311.214844 438.070312 309.253906 438.007812 308.1875 438.070312 C 306.347656 439.496094 304.804688 440.5625 303.554688 441.277344 L 303.554688 454.230469 L 294.648438 449.65625 C 294.472656 448.882812 293.9375 445.613281 295.835938 442.40625 C 297.144531 440.265625 298.925781 439.199219 299.816406 438.722656 C 299.875 438.542969 299.933594 438.304688 299.992188 438.070312 C 299.042969 438.1875 296.609375 438.542969 294.472656 440.503906 C 291.148438 443.476562 291.207031 447.695312 291.207031 448.347656 L 285.386719 445.734375 L 282.539062 449.65625 L 288 454.410156 L 287.289062 457.796875 L 280.757812 459.996094 L 295.007812 465.460938 L 294.589844 459.996094 L 304.386719 464.925781 L 305.988281 463.917969 C 305.8125 466.292969 305.632812 468.847656 305.574219 471.523438 C 305.515625 475.621094 305.691406 479.425781 305.988281 482.929688 C 308.007812 483.289062 310.917969 483.527344 314.300781 483.050781 C 317.035156 482.632812 319.289062 481.863281 320.953125 481.148438 C 318.992188 472.710938 318.875 465.816406 319.171875 460.945312 Z M 408.941406 328.4375 C 407.039062 325.941406 403.242188 322.4375 395.285156 320.417969 C 395.402344 321.1875 396.292969 329.390625 392.730469 331.289062 C 389.464844 333.074219 382.519531 329.328125 377.117188 320.417969 C 373.734375 320.355469 368.390625 320.773438 362.867188 323.566406 C 361.144531 324.457031 358.710938 325.882812 352.476562 331.882812 C 349.273438 334.972656 344.9375 339.371094 340.128906 344.957031 C 344.582031 349.058594 349.035156 353.15625 353.488281 357.316406 L 365.066406 345.433594 C 366.191406 349.710938 367.203125 354.820312 367.738281 360.585938 C 368.332031 366.527344 368.332031 371.816406 368.035156 376.332031 C 374.207031 376.804688 380.917969 377.101562 388.101562 377.101562 C 394.039062 377.042969 399.621094 376.804688 404.902344 376.332031 C 404.132812 372.882812 403.539062 368.367188 404.011719 363.082031 C 404.191406 361.058594 404.546875 359.21875 404.902344 357.554688 C 405.320312 358.03125 405.675781 358.445312 406.089844 358.921875 L 417.847656 343.175781 C 416.835938 341.390625 415.292969 338.777344 413.394531 335.570312 C 410.960938 331.527344 409.710938 329.507812 408.941406 328.4375 " fill-opacity="1" fill-rule="nonzero"/><path fill="#545454" d="M 452.28125 283.160156 C 452.222656 283.160156 452.164062 283.160156 452.042969 283.21875 C 451.273438 283.457031 450.917969 285.179688 451.628906 287.199219 C 452.28125 289.21875 453.589844 290.410156 454.359375 290.171875 C 455.132812 289.933594 455.488281 288.210938 454.777344 286.191406 C 454.183594 284.289062 452.996094 283.160156 452.28125 283.160156 Z M 454.121094 291.003906 C 452.875 291.003906 451.511719 289.578125 450.796875 287.4375 C 450.027344 285.0625 450.441406 282.859375 451.746094 282.386719 C 453.054688 281.96875 454.714844 283.457031 455.546875 285.832031 C 456.320312 288.210938 455.902344 290.410156 454.597656 290.882812 C 454.417969 291.003906 454.300781 291.003906 454.121094 291.003906 " fill-opacity="1" fill-rule="nonzero"/><g clip-path="url(#acfe2d687a)"><path fill="#545454" d="M 271.316406 459.816406 C 271.4375 459.636719 271.4375 459.402344 271.257812 459.222656 C 221.445312 419.054688 195.320312 371.101562 199.476562 327.546875 C 202.207031 299.023438 222.929688 253.269531 260.273438 240.792969 C 264.84375 239.246094 277.136719 235.980469 292.867188 238.175781 C 301.359375 239.367188 308.660156 241.859375 315.3125 245.785156 C 315.488281 245.902344 315.785156 245.84375 315.90625 245.664062 C 316.023438 245.488281 315.964844 245.191406 315.785156 245.070312 C 309.019531 241.089844 301.597656 238.535156 293.046875 237.347656 C 277.136719 235.148438 264.667969 238.476562 260.097656 240.019531 C 238.722656 247.089844 224.589844 264.085938 216.457031 277.097656 C 206.839844 292.488281 200.191406 311.324219 198.644531 327.429688 C 196.449219 350.78125 202.386719 374.785156 216.398438 398.851562 C 228.746094 420.125 247.570312 441.21875 270.722656 459.875 C 270.78125 459.933594 270.902344 459.996094 270.960938 459.996094 C 271.078125 459.996094 271.199219 459.933594 271.316406 459.816406 Z M 442.664062 524.941406 C 436.074219 524.941406 429.363281 524.644531 422.535156 523.992188 C 392.496094 521.199219 368.449219 512.699219 358.179688 509.136719 C 340.011719 502.777344 321.011719 493.625 303.257812 482.753906 C 303.082031 482.632812 303.023438 482.394531 303.140625 482.160156 C 303.257812 481.980469 303.496094 481.921875 303.734375 482.039062 C 321.484375 492.914062 340.425781 502.003906 358.535156 508.363281 C 421.289062 530.410156 477.21875 529.277344 524.773438 505.035156 C 549.710938 492.199219 608.488281 455.835938 612.230469 394.214844 C 612.585938 388.570312 614.484375 338.0625 577.617188 309.1875 C 565.976562 300.09375 545.496094 289.339844 513.910156 290.050781 C 502.808594 290.289062 496.453125 292.25 488.320312 294.746094 C 484.34375 295.996094 479.832031 297.359375 474.191406 298.667969 C 473.359375 298.847656 471.933594 299.203125 470.09375 299.558594 C 469.855469 299.617188 469.675781 299.441406 469.617188 299.261719 C 469.558594 299.023438 469.738281 298.847656 469.914062 298.789062 C 471.753906 298.371094 473.179688 298.074219 474.011719 297.894531 C 479.59375 296.589844 484.105469 295.222656 488.082031 293.972656 C 496.277344 291.476562 502.6875 289.515625 513.910156 289.28125 C 545.671875 288.566406 566.394531 299.382812 578.089844 308.589844 C 615.316406 337.707031 613.355469 388.632812 613 394.335938 C 611.277344 423.214844 597.265625 449.953125 571.382812 473.839844 C 562.179688 482.335938 546.683594 494.757812 524.953125 505.808594 C 499.957031 518.523438 472.347656 524.941406 442.664062 524.941406 " fill-opacity="1" fill-rule="nonzero"/></g></svg>