<svg xmlns="http://www.w3.org/2000/svg" xmlns:xlink="http://www.w3.org/1999/xlink" width="1080" zoomAndPan="magnify" viewBox="0 0 810 809.999993" height="1080" preserveAspectRatio="xMidYMid meet" version="1.0"><defs><clipPath id="30ce734d32"><path d="M 71 119 L 726 119 L 726 706 L 71 706 Z M 71 119 " clip-rule="nonzero"/></clipPath><clipPath id="9ea80a7819"><path d="M 834.554688 41.71875 L 778.507812 831.734375 L -111.007812 768.628906 L -54.960938 -21.386719 Z M 834.554688 41.71875 " clip-rule="nonzero"/></clipPath><clipPath id="77557e41fb"><path d="M -111.242188 768.269531 L -55.195312 -21.742188 L 834.320312 41.363281 L 778.273438 831.378906 Z M -111.242188 768.269531 " clip-rule="nonzero"/></clipPath><clipPath id="18fd9354c2"><path d="M 181.359375 394.15625 L 628.359375 394.15625 L 628.359375 539 L 181.359375 539 Z M 181.359375 394.15625 " clip-rule="nonzero"/></clipPath><clipPath id="f2c043a550"><path d="M 250.453125 233.898438 L 558 233.898438 L 558 576.25 L 250.453125 576.25 Z M 250.453125 233.898438 " clip-rule="nonzero"/></clipPath></defs><g clip-path="url(#30ce734d32)"><g clip-path="url(#9ea80a7819)"><g clip-path="url(#77557e41fb)"><path fill="#e2ffe8" d="M 124.90625 537.734375 C -85.730469 413.371094 388.304688 11.195312 518.878906 147.375 C 649.449219 283.558594 523.710938 254.523438 584.160156 333.535156 C 644.601562 412.546875 810.636719 379.683594 670.175781 596.152344 C 529.71875 812.625 335.550781 662.101562 124.90625 537.738281 Z M 124.90625 537.734375 " fill-opacity="1" fill-rule="nonzero"/></g></g></g><path fill="#008037" d="M 540.320312 533.808594 C 541.003906 537.371094 544.425781 530.523438 548.871094 519.222656 C 548.527344 521.824219 547.640625 522.226562 547.296875 525.726562 C 547.09375 527.914062 546.476562 533.734375 549.351562 535.316406 C 551.402344 536.472656 554.273438 534.972656 555.371094 534.351562 C 557.421875 535.71875 563.167969 539.210938 571.105469 538.945312 C 576.507812 538.742188 580.613281 536.890625 582.804688 535.660156 C 583.625 536.40625 588.207031 540.378906 594.84375 539.828125 C 603.1875 539.210938 607.429688 532.023438 607.703125 531.414062 C 611.261719 532.980469 615.433594 532.5 618.511719 530.105469 C 623.164062 526.542969 622.753906 520.859375 622.753906 520.515625 C 621.933594 519.28125 619.402344 515.925781 614.75 514.351562 C 607.976562 512.09375 602.164062 515.515625 601.273438 516.0625 C 599.632812 515.316406 596.347656 514.085938 592.105469 514.289062 C 587.933594 514.488281 584.785156 515.925781 583.214844 516.75 C 581.84375 516.140625 579.246094 515.113281 575.894531 515.242188 C 573.566406 515.316406 571.652344 515.925781 570.421875 516.40625 C 572.0625 514.898438 574.386719 512.371094 575.824219 508.734375 C 578.835938 500.859375 574.457031 496.140625 576.578125 488.328125 C 578.492188 481.210938 583.007812 482.300781 586.222656 474.910156 C 590.464844 465.117188 588.277344 449.707031 579.109375 445.179688 C 577.601562 444.433594 576.03125 444.015625 574.523438 443.886719 L 581.296875 421.148438 C 581.777344 418.46875 582.664062 411.695312 578.835938 405.191406 C 578.015625 403.820312 574.25 397.445312 569.941406 397.863281 C 566.382812 398.203125 564.058594 403 561.730469 409.300781 C 555.234375 426.6875 553.863281 441.007812 553.863281 441.007812 C 551.675781 463.875 546.957031 462.300781 542.78125 488.746094 C 541.140625 499.222656 536.625 514.898438 540.320312 533.808594 Z M 269.480469 534.835938 C 268.792969 538.398438 265.375 531.550781 260.925781 520.25 C 261.269531 522.851562 262.160156 523.253906 262.5 526.753906 C 262.707031 528.941406 263.320312 534.761719 260.449219 536.34375 C 258.394531 537.5 255.523438 536 254.429688 535.378906 C 252.375 536.746094 246.625 540.238281 238.691406 539.972656 C 233.285156 539.769531 229.183594 537.917969 226.992188 536.6875 C 226.171875 537.433594 221.585938 541.40625 214.953125 540.855469 C 206.605469 540.238281 202.363281 533.050781 202.089844 532.441406 C 198.53125 534.007812 194.363281 533.527344 191.28125 531.132812 C 186.628906 527.570312 187.039062 521.886719 187.039062 521.542969 C 187.863281 520.308594 190.394531 516.953125 195.046875 515.378906 C 201.816406 513.121094 207.632812 516.542969 208.523438 517.089844 C 210.164062 516.34375 213.445312 515.113281 217.6875 515.316406 C 221.863281 515.515625 225.007812 516.953125 226.582031 517.777344 C 227.949219 517.167969 230.550781 516.140625 233.902344 516.269531 C 236.230469 516.34375 238.144531 516.953125 239.375 517.433594 C 237.734375 515.925781 235.410156 513.398438 233.96875 509.761719 C 230.960938 501.886719 235.339844 497.167969 233.21875 489.355469 C 231.304688 482.238281 226.785156 483.328125 223.574219 475.9375 C 219.332031 466.144531 221.519531 450.734375 230.6875 446.207031 C 232.191406 445.460938 233.765625 445.042969 235.269531 444.914062 L 228.496094 422.175781 C 228.019531 419.496094 227.128906 412.722656 230.960938 406.21875 C 231.78125 404.847656 235.542969 398.472656 239.855469 398.890625 C 243.410156 399.230469 245.738281 404.027344 248.0625 410.328125 C 254.566406 427.714844 255.933594 442.035156 255.933594 442.035156 C 258.121094 464.902344 262.84375 463.328125 267.015625 489.773438 C 268.726562 500.25 273.242188 516.003906 269.480469 534.835938 " fill-opacity="1" fill-rule="nonzero"/><g clip-path="url(#18fd9354c2)"><path fill="#545454" d="M 623.300781 527.570312 C 622.34375 528.253906 621.320312 528.808594 620.222656 529.152344 L 612.082031 519.832031 C 617.214844 519.085938 622.34375 518.398438 627.40625 517.777344 C 628.226562 521.0625 626.519531 525.171875 623.300781 527.570312 Z M 612.492188 528.597656 C 612.425781 528.527344 612.289062 528.527344 612.21875 528.597656 C 612.152344 528.671875 612.015625 528.734375 612.015625 528.808594 C 611.46875 530.105469 610.714844 531.269531 609.824219 532.296875 C 609.140625 533.125 608.320312 533.808594 607.5 534.351562 L 595.117188 522.433594 C 600.453125 521.542969 605.789062 520.796875 611.195312 519.96875 L 619.402344 529.359375 C 617.144531 529.835938 614.683594 529.625 612.492188 528.597656 Z M 597.441406 536.890625 C 592.449219 536.609375 588.824219 534.152344 587.113281 532.707031 C 587.042969 532.636719 586.976562 532.636719 586.839844 532.636719 C 586.769531 532.636719 586.703125 532.636719 586.632812 532.707031 C 585.949219 533.125 585.058594 533.664062 583.898438 534.152344 L 576.644531 525.652344 C 580.136719 525.042969 583.691406 524.359375 587.179688 523.804688 C 589.4375 523.390625 591.765625 523.050781 594.023438 522.644531 L 606.679688 534.835938 C 603.050781 536.953125 598.878906 536.953125 597.441406 536.890625 Z M 574.113281 535.582031 C 571.308594 535.242188 568.710938 534.351562 566.179688 532.78125 C 565.289062 532.441406 562.484375 531.207031 561.457031 528.527344 C 566.246094 527.570312 571.035156 526.617188 575.824219 525.726562 L 583.144531 534.351562 C 580.820312 535.316406 577.671875 536.0625 574.113281 535.582031 Z M 554.824219 533.808594 L 563.101562 505.242188 L 581.707031 497.09375 C 581.914062 499.566406 581.777344 502.160156 580.546875 505.242188 C 579.3125 508.46875 577.191406 511.40625 574.386719 514.007812 C 570.625 514.632812 566.316406 516.140625 563.304688 519.832031 C 562.210938 521.140625 559.40625 524.5625 560.570312 528.390625 C 560.910156 529.554688 561.527344 530.445312 562.28125 531.207031 C 559.953125 533.605469 557.011719 534.351562 554.824219 533.808594 Z M 554.136719 533.527344 C 553.863281 533.390625 553.523438 533.261719 553.316406 533.050781 C 551.675781 531.816406 551.402344 529.496094 551.332031 528.734375 C 550.992188 525.933594 551.949219 523.734375 552.769531 522.023438 C 552.90625 521.679688 553.042969 521.335938 553.179688 521.0625 C 554.550781 517.851562 554 515.515625 553.316406 512.640625 C 552.839844 510.585938 552.292969 508.324219 552.222656 505.042969 C 552.15625 503.128906 552.292969 501.757812 552.566406 500.386719 L 561.253906 509.078125 Z M 551.128906 523.804688 L 547.640625 531.414062 C 546.957031 532.234375 545.792969 533.1875 545.109375 533.1875 C 547.707031 510.867188 551.675781 488.464844 556.875 466.546875 C 562.074219 444.835938 568.640625 423.203125 576.371094 402.238281 C 576.441406 402.03125 576.371094 401.828125 576.167969 401.765625 C 575.960938 401.691406 575.757812 401.765625 575.6875 401.972656 C 567.957031 422.921875 561.390625 444.632812 556.191406 466.410156 C 550.992188 488.058594 547.09375 510.242188 544.492188 532.4375 C 544.425781 532.097656 544.355469 531.550781 544.425781 530.726562 C 545.65625 499.078125 546.339844 483.191406 549.691406 470.65625 C 550.375 468.0625 550.855469 466.410156 551.46875 464.433594 C 552.222656 461.824219 553.113281 458.953125 554.6875 453.054688 C 555.710938 449.226562 556.601562 446.207031 557.285156 443.808594 C 558.722656 438.8125 559.613281 435.796875 560.160156 431.960938 C 560.636719 428.261719 566.246094 399.710938 573.226562 395.664062 C 574.046875 395.183594 574.867188 395.121094 575.6875 395.464844 C 583.625 398.683594 585.609375 409.984375 583.554688 416.621094 C 581.707031 422.65625 578.355469 437.507812 577.808594 439.777344 C 571.242188 440.042969 564.46875 444.632812 561.730469 449.914062 C 560.5 452.234375 560.433594 453.878906 560.226562 457.242188 C 560.089844 459.980469 559.886719 463.808594 558.925781 469.972656 C 558.3125 473.808594 557.765625 476.480469 557.082031 479.902344 C 555.300781 488.53125 553.863281 493.121094 552.976562 496.203125 C 551.882812 499.703125 551.332031 501.414062 551.46875 505.179688 C 551.605469 508.46875 552.15625 510.925781 552.632812 512.921875 C 553.316406 515.796875 553.796875 517.914062 552.496094 520.859375 C 552.359375 521.140625 552.222656 521.480469 552.085938 521.824219 C 551.742188 522.304688 551.402344 523.050781 551.128906 523.804688 Z M 582.390625 441.070312 C 591.148438 444.015625 594.636719 457.507812 591.832031 467.171875 C 590.671875 471.144531 588.824219 472.917969 586.839844 474.835938 C 585.882812 475.792969 584.921875 476.683594 584.035156 477.917969 L 570.558594 479.15625 L 579.039062 449.914062 C 579.109375 449.707031 578.972656 449.496094 578.765625 449.425781 C 578.5625 449.363281 578.355469 449.496094 578.289062 449.707031 L 575.140625 460.527344 L 563.441406 448.398438 C 567.480469 442.988281 575.824219 438.878906 582.390625 441.070312 Z M 557.355469 482.164062 C 557.492188 481.476562 557.628906 480.730469 557.832031 479.972656 C 558.515625 476.546875 559.0625 473.882812 559.679688 470.039062 C 560.636719 463.808594 560.84375 459.980469 560.980469 457.242188 C 561.183594 454.023438 561.253906 452.371094 562.347656 450.253906 C 562.554688 449.835938 562.828125 449.425781 563.101562 449.023438 L 575.003906 461.351562 L 569.804688 479.5 L 566.453125 491.203125 Z M 566.109375 492.03125 L 561.457031 508.261719 L 552.703125 499.492188 C 552.90625 498.539062 553.25 497.574219 553.660156 496.339844 C 554.480469 493.667969 555.710938 489.832031 557.148438 483.054688 Z M 581.503906 483.53125 C 580.476562 487.582031 580.886719 490.800781 581.296875 493.882812 C 581.433594 494.695312 581.503906 495.457031 581.570312 496.203125 L 563.304688 504.214844 L 570.351562 479.902344 L 583.488281 478.675781 C 582.734375 479.972656 582.050781 481.554688 581.503906 483.53125 Z M 565.085938 527.023438 C 563.785156 527.304688 562.554688 527.5 561.253906 527.78125 C 560.5 524.488281 562.964844 521.40625 563.921875 520.25 C 566.382812 517.296875 569.804688 515.796875 573.019531 515.035156 Z M 580.613281 514.214844 C 583.28125 514.214844 586.019531 514.488281 588.617188 515.171875 C 588.753906 515.171875 588.890625 515.171875 588.960938 515.113281 C 589.644531 514.425781 590.808594 513.53125 592.378906 512.777344 L 585.335938 523.195312 C 582.1875 523.734375 578.972656 524.28125 575.757812 524.90625 L 575.6875 524.90625 C 572.40625 525.515625 569.1875 526.132812 565.972656 526.753906 L 573.910156 514.769531 C 576.78125 514.289062 579.246094 514.289062 580.613281 514.214844 Z M 593.75 512.371094 C 594.636719 512.09375 595.527344 511.894531 596.621094 511.75 C 600.179688 511.476562 602.914062 512.777344 604.285156 513.605469 C 604.421875 513.667969 604.558594 513.667969 604.625 513.605469 C 606.199219 512.84375 607.839844 512.234375 609.484375 511.894531 L 604.148438 520.171875 C 598.46875 521.0625 592.789062 521.960938 587.113281 522.914062 C 586.90625 522.988281 586.703125 522.988281 586.496094 523.050781 Z M 610.507812 511.75 C 611.945312 511.476562 613.3125 511.40625 614.75 511.476562 C 623.234375 511.894531 626.175781 514.695312 627.132812 517.089844 C 621.867188 517.777344 616.597656 518.460938 611.332031 519.222656 L 611.125 519.222656 C 609.140625 519.488281 607.15625 519.769531 605.105469 520.113281 Z M 627.953125 517.03125 C 626.585938 513.121094 622.140625 511.003906 614.75 510.660156 C 613.246094 510.585938 611.742188 510.722656 610.234375 511.003906 L 610.097656 511.003906 C 608.183594 511.34375 606.199219 511.953125 604.421875 512.84375 C 602.984375 511.953125 600.109375 510.660156 596.484375 511.003906 C 595.320312 511.066406 594.296875 511.34375 593.40625 511.613281 L 593.339844 511.613281 C 591.148438 512.371094 589.574219 513.53125 588.617188 514.351562 C 586.019531 513.667969 583.28125 513.398438 580.613281 513.398438 C 579.519531 513.398438 577.742188 513.398438 575.6875 513.667969 C 578.21875 511.207031 580.066406 508.394531 581.230469 505.386719 C 582.527344 501.960938 582.597656 499.078125 582.390625 496.410156 C 582.324219 495.519531 582.1875 494.628906 582.050781 493.746094 C 581.640625 490.722656 581.230469 487.582031 582.1875 483.667969 C 582.734375 481.417969 583.554688 479.765625 584.511719 478.472656 C 585.402344 477.230469 586.359375 476.339844 587.316406 475.3125 C 589.300781 473.398438 591.285156 471.484375 592.515625 467.300781 C 595.046875 458.535156 592.449219 443.671875 582.527344 440.324219 C 581.230469 439.839844 579.792969 439.640625 578.425781 439.640625 C 579.039062 436.824219 582.253906 422.578125 584.101562 416.695312 C 586.15625 409.910156 584.445312 398.128906 575.757812 394.574219 C 574.730469 394.15625 573.636719 394.230469 572.609375 394.84375 C 565.222656 399.089844 559.679688 427.792969 559.132812 431.761719 C 558.652344 435.53125 557.765625 438.535156 556.328125 443.46875 C 555.644531 445.863281 554.753906 448.945312 553.726562 452.714844 C 552.15625 458.535156 551.265625 461.480469 550.511719 464.089844 C 549.964844 466.070312 549.417969 467.78125 548.734375 470.316406 C 545.3125 482.847656 544.699219 498.804688 543.464844 530.523438 C 543.398438 531.753906 543.464844 533.1875 544.355469 533.664062 L 544.425781 533.664062 C 544.628906 533.734375 544.765625 533.808594 544.972656 533.808594 C 546.269531 533.808594 547.84375 532.097656 548.1875 531.753906 L 548.253906 531.679688 L 550.375 527.023438 C 550.375 527.570312 550.375 528.125 550.445312 528.734375 C 550.582031 529.554688 550.855469 532.160156 552.769531 533.605469 C 553.179688 533.871094 553.589844 534.078125 554.136719 534.289062 C 554.136719 534.289062 554.207031 534.351562 554.273438 534.351562 L 554.34375 534.351562 C 554.960938 534.554688 555.574219 534.632812 556.328125 534.632812 C 558.449219 534.632812 560.910156 533.664062 562.894531 531.609375 C 564.125 532.636719 565.425781 533.1875 565.90625 533.390625 C 568.4375 534.972656 571.171875 536 574.113281 536.269531 C 579.929688 536.953125 584.511719 534.761719 586.90625 533.324219 C 588.753906 534.835938 592.449219 537.234375 597.441406 537.5 L 598.332031 537.5 C 600.382812 537.5 604.214844 537.160156 607.636719 535.035156 C 607.703125 535.035156 607.773438 534.972656 607.773438 534.972656 C 608.730469 534.351562 609.621094 533.605469 610.441406 532.707031 C 611.332031 531.753906 612.015625 530.582031 612.5625 529.359375 C 615.023438 530.386719 617.761719 530.523438 620.222656 529.835938 C 621.457031 529.496094 622.6875 528.871094 623.78125 528.125 C 627.40625 525.445312 629.253906 520.652344 627.953125 517.03125 Z M 265.441406 533.464844 C 262.84375 511.34375 258.945312 489.148438 253.742188 467.4375 C 248.542969 445.660156 241.972656 424.023438 234.242188 403 C 234.175781 402.792969 233.96875 402.71875 233.765625 402.792969 C 233.558594 402.855469 233.492188 403.058594 233.558594 403.265625 C 241.289062 424.230469 247.859375 445.863281 253.058594 467.574219 C 258.257812 489.429688 262.226562 511.894531 264.828125 534.214844 C 264.144531 534.214844 262.980469 533.261719 262.296875 532.4375 L 258.804688 524.832031 C 258.53125 524.015625 258.191406 523.332031 257.917969 522.707031 C 257.78125 522.363281 257.644531 522.089844 257.507812 521.75 C 256.207031 518.742188 256.753906 516.6875 257.371094 513.804688 C 257.847656 511.816406 258.394531 509.421875 258.53125 506.070312 C 258.667969 502.304688 258.121094 500.59375 257.027344 497.09375 C 256.070312 494.085938 254.632812 489.492188 252.921875 480.792969 C 252.238281 477.367188 251.691406 474.703125 251.074219 470.863281 C 250.117188 464.699219 249.914062 460.871094 249.777344 458.128906 C 249.570312 454.769531 249.5 453.132812 248.269531 450.796875 C 245.464844 445.460938 238.757812 440.933594 232.191406 440.667969 C 231.710938 438.40625 228.363281 423.542969 226.445312 417.519531 C 224.394531 410.875 226.445312 399.636719 234.3125 396.347656 C 235.132812 396.007812 235.953125 396.074219 236.777344 396.554688 C 243.753906 400.601562 249.363281 429.160156 249.84375 432.851562 C 250.390625 436.695312 251.214844 439.699219 252.71875 444.699219 C 253.402344 447.097656 254.292969 450.109375 255.316406 453.945312 C 256.890625 459.84375 257.78125 462.71875 258.53125 465.320312 C 259.082031 467.300781 259.628906 468.945312 260.3125 471.546875 C 263.664062 484.011719 264.347656 499.90625 265.578125 531.609375 C 265.578125 532.5 265.511719 533.050781 265.441406 533.464844 Z M 258.53125 529.835938 C 258.464844 530.582031 258.121094 532.917969 256.550781 534.152344 C 256.273438 534.351562 256 534.492188 255.726562 534.632812 L 248.679688 510.179688 L 257.371094 501.476562 C 257.644531 502.847656 257.78125 504.214844 257.710938 506.132812 C 257.574219 509.351562 257.097656 511.6875 256.617188 513.742188 C 255.933594 516.6875 255.386719 518.941406 256.753906 522.167969 C 256.890625 522.433594 257.027344 522.777344 257.164062 523.117188 C 257.917969 524.832031 258.945312 527.023438 258.53125 529.835938 Z M 247.582031 532.234375 C 248.335938 531.472656 248.953125 530.582031 249.292969 529.417969 C 250.390625 525.589844 247.582031 522.167969 246.558594 520.859375 C 243.546875 517.226562 239.238281 515.722656 235.476562 515.035156 C 232.601562 512.433594 230.550781 509.496094 229.316406 506.269531 C 228.15625 503.1875 227.949219 500.59375 228.15625 498.121094 L 246.761719 506.269531 L 255.042969 534.835938 C 252.785156 535.378906 249.84375 534.691406 247.582031 532.234375 Z M 243.546875 533.871094 C 241.152344 535.378906 238.488281 536.34375 235.679688 536.6875 C 232.125 537.089844 228.976562 536.40625 226.582031 535.445312 L 233.902344 526.816406 C 238.691406 527.707031 243.546875 528.597656 248.269531 529.625 C 247.3125 532.234375 244.503906 533.527344 243.546875 533.871094 Z M 223.160156 533.734375 C 223.023438 533.664062 222.820312 533.664062 222.683594 533.734375 C 220.972656 535.179688 217.347656 537.636719 212.351562 537.917969 C 210.917969 537.980469 206.675781 537.980469 202.980469 535.789062 L 215.636719 523.597656 C 217.964844 523.941406 220.21875 524.359375 222.476562 524.761719 C 225.96875 525.386719 229.523438 525.996094 233.015625 526.617188 L 225.898438 535.179688 C 224.804688 534.691406 223.84375 534.152344 223.160156 533.734375 Z M 200.039062 533.390625 C 199.152344 532.363281 198.398438 531.207031 197.847656 529.898438 C 197.78125 529.835938 197.710938 529.699219 197.644531 529.699219 L 197.507812 529.699219 C 197.441406 529.699219 197.371094 529.699219 197.371094 529.761719 C 195.183594 530.789062 192.71875 530.996094 190.460938 530.523438 L 198.667969 521.140625 C 204.003906 521.886719 209.414062 522.707031 214.746094 523.597656 L 202.363281 535.519531 C 201.542969 534.835938 200.722656 534.152344 200.039062 533.390625 Z M 189.640625 530.179688 C 188.546875 529.835938 187.519531 529.28125 186.5625 528.597656 C 183.277344 526.199219 181.636719 522.089844 182.457031 518.804688 C 187.585938 519.425781 192.652344 520.113281 197.78125 520.859375 Z M 195.046875 512.503906 C 196.414062 512.433594 197.847656 512.578125 199.285156 512.777344 L 204.625 521.140625 C 202.636719 520.859375 200.65625 520.515625 198.601562 520.25 L 198.398438 520.25 C 193.128906 519.488281 187.863281 518.804688 182.59375 518.117188 C 183.617188 515.722656 186.5625 512.921875 195.046875 512.503906 Z M 205.238281 514.695312 C 205.375 514.769531 205.511719 514.769531 205.578125 514.695312 C 206.878906 513.871094 209.617188 512.578125 213.242188 512.84375 C 214.265625 512.921875 215.226562 513.121094 216.113281 513.460938 L 223.367188 524.144531 C 223.160156 524.078125 222.957031 524.078125 222.753906 524.015625 C 217.140625 523.050781 211.394531 522.167969 205.714844 521.277344 L 200.378906 512.980469 C 202.023438 513.398438 203.664062 513.949219 205.238281 514.695312 Z M 236.84375 516.0625 C 240.058594 516.824219 243.480469 518.324219 245.941406 521.277344 C 246.898438 522.433594 249.363281 525.515625 248.609375 528.808594 C 247.3125 528.527344 246.078125 528.332031 244.78125 528.050781 Z M 220.765625 516.199219 C 220.835938 516.269531 220.972656 516.34375 221.109375 516.269531 C 223.707031 515.585938 226.445312 515.242188 229.113281 515.316406 C 230.550781 515.316406 233.015625 515.378906 235.75 515.859375 L 243.683594 527.84375 C 240.46875 527.226562 237.183594 526.617188 233.96875 525.996094 L 233.902344 525.996094 C 230.6875 525.386719 227.542969 524.832031 224.394531 524.28125 L 217.347656 513.871094 C 218.921875 514.632812 220.082031 515.585938 220.765625 516.199219 Z M 226.308594 479.765625 L 239.445312 481 L 246.421875 505.3125 L 228.15625 497.304688 C 228.226562 496.546875 228.363281 495.722656 228.429688 494.96875 C 228.839844 491.886719 229.25 488.667969 228.226562 484.636719 C 227.8125 482.582031 227.128906 481.074219 226.308594 479.765625 Z M 252.71875 484.15625 C 254.222656 490.859375 255.386719 494.769531 256.207031 497.4375 C 256.617188 498.675781 256.890625 499.703125 257.164062 500.59375 L 248.40625 509.351562 L 243.683594 493.058594 Z M 243.480469 492.230469 L 234.859375 462.378906 L 246.761719 450.050781 C 247.039062 450.453125 247.242188 450.863281 247.515625 451.28125 C 248.609375 453.398438 248.75 455.050781 248.886719 458.269531 C 249.019531 461.070312 249.226562 464.835938 250.1875 471.066406 C 250.800781 474.910156 251.351562 477.648438 252.035156 481 C 252.171875 481.757812 252.375 482.503906 252.511719 483.191406 Z M 222.957031 475.863281 C 220.972656 473.945312 219.125 472.171875 217.964844 468.199219 C 215.15625 458.609375 218.648438 445.117188 227.402344 442.097656 C 228.769531 441.617188 230.207031 441.414062 231.644531 441.488281 L 231.847656 441.488281 C 237.390625 441.617188 243.136719 445.042969 246.285156 449.363281 L 234.585938 461.480469 L 231.441406 450.660156 C 231.371094 450.453125 231.164062 450.316406 230.960938 450.390625 C 230.753906 450.453125 230.621094 450.660156 230.6875 450.863281 L 239.171875 480.109375 L 225.691406 478.875 C 224.871094 477.785156 223.914062 476.820312 222.957031 475.863281 Z M 260.996094 471.484375 C 260.3125 468.882812 259.765625 467.171875 259.21875 465.246094 C 258.464844 462.644531 257.574219 459.769531 256 453.878906 C 254.976562 450.050781 254.085938 447.027344 253.402344 444.632812 C 251.964844 439.699219 251.074219 436.695312 250.597656 432.925781 C 250.050781 429.023438 244.503906 400.320312 237.117188 396.007812 C 236.09375 395.390625 234.996094 395.320312 233.96875 395.730469 C 225.28125 399.292969 223.574219 411.074219 225.625 417.859375 C 227.402344 423.742188 230.6875 437.988281 231.304688 440.804688 C 229.9375 440.804688 228.496094 441.007812 227.199219 441.488281 C 217.28125 444.835938 214.679688 459.699219 217.210938 468.464844 C 218.441406 472.648438 220.425781 474.566406 222.410156 476.480469 C 223.4375 477.445312 224.394531 478.394531 225.214844 479.628906 C 226.171875 480.929688 226.921875 482.582031 227.542969 484.839844 C 228.496094 488.746094 228.085938 491.886719 227.675781 494.910156 C 227.542969 495.796875 227.472656 496.683594 227.335938 497.574219 C 227.058594 500.25 227.128906 503.125 228.496094 506.550781 C 229.660156 509.558594 231.507812 512.371094 234.039062 514.832031 C 231.988281 514.558594 230.277344 514.558594 229.113281 514.558594 C 226.445312 514.558594 223.707031 514.832031 221.109375 515.515625 C 220.152344 514.695312 218.578125 513.53125 216.390625 512.777344 L 216.320312 512.777344 C 215.363281 512.433594 214.402344 512.234375 213.242188 512.160156 C 209.617188 511.894531 206.742188 513.121094 205.308594 514.007812 C 203.457031 513.121094 201.542969 512.503906 199.558594 512.160156 L 199.492188 512.160156 C 197.984375 511.894531 196.480469 511.75 194.976562 511.816406 C 187.585938 512.160156 183.140625 514.289062 181.773438 518.195312 C 180.472656 521.824219 182.320312 526.617188 186.011719 529.359375 C 187.109375 530.179688 188.269531 530.726562 189.574219 531.070312 C 192.035156 531.753906 194.769531 531.609375 197.234375 530.582031 C 197.78125 531.816406 198.53125 532.917969 199.355469 533.945312 C 200.175781 534.898438 201.0625 535.582031 202.023438 536.207031 C 202.089844 536.269531 202.089844 536.269531 202.160156 536.269531 C 205.578125 538.398438 209.414062 538.742188 211.464844 538.742188 L 212.351562 538.742188 C 217.347656 538.460938 221.042969 536.0625 222.886719 534.554688 C 223.640625 535.035156 224.597656 535.519531 225.761719 536 C 228.292969 537.027344 231.710938 537.917969 235.679688 537.433594 C 238.554688 537.089844 241.359375 536.132812 243.753906 534.554688 C 244.300781 534.351562 245.601562 533.808594 246.832031 532.707031 C 248.816406 534.835938 251.214844 535.789062 253.332031 535.789062 C 254.085938 535.789062 254.769531 535.660156 255.386719 535.445312 C 255.933594 535.242188 256.414062 535.035156 256.824219 534.691406 C 258.667969 533.324219 259.011719 530.726562 259.148438 529.835938 C 259.21875 529.214844 259.21875 528.671875 259.21875 528.125 L 261.335938 532.78125 L 261.40625 532.84375 C 261.75 533.261719 263.320312 534.898438 264.621094 534.898438 C 264.828125 534.898438 265.03125 534.835938 265.167969 534.761719 L 265.238281 534.761719 C 266.125 534.289062 266.195312 532.84375 266.125 531.609375 C 265.03125 499.96875 264.417969 484.082031 260.996094 471.484375 " fill-opacity="1" fill-rule="nonzero"/></g><path fill="#ffffff" d="M 288.085938 346.214844 L 254.769531 346.214844 L 254.769531 536.0625 L 271.324219 536.0625 L 253.675781 552.363281 L 257.917969 557.363281 L 276.796875 543.460938 C 278.167969 541 279.535156 538.527344 280.835938 536.0625 L 281.585938 536.0625 L 280.835938 565.71875 L 288.019531 565.71875 L 294.859375 536.0625 L 510.695312 536.0625 L 518.90625 571.476562 L 526.089844 571.476562 L 525.269531 540.316406 C 526.910156 543.253906 528.550781 546.273438 530.125 549.21875 L 549.007812 563.113281 L 553.25 558.121094 L 534.09375 540.378906 C 534.164062 538.945312 534.230469 537.574219 534.300781 536.132812 L 550.101562 536.132812 L 550.101562 346.214844 L 288.085938 346.214844 " fill-opacity="1" fill-rule="nonzero"/><path fill="#008037" d="M 327.492188 544.765625 L 327.492188 527.160156 L 436.199219 527.160156 L 436.199219 556.675781 L 436.265625 556.675781 L 417.589844 556.675781 L 417.589844 574.277344 L 327.285156 574.277344 M 327.355469 574.277344 L 308.816406 574.277344 L 308.816406 544.765625 L 327.492188 544.765625 " fill-opacity="1" fill-rule="nonzero"/><path fill="#008037" d="M 277.621094 468.464844 L 362.929688 468.464844 L 362.929688 474.835938 L 277.621094 474.835938 Z M 349.792969 399.917969 L 313.808594 399.917969 L 313.808594 395.121094 L 349.792969 395.121094 Z M 365.734375 392.308594 L 313.808594 392.308594 L 313.808594 387.515625 L 365.734375 387.515625 Z M 324.34375 509.898438 C 324.34375 512.777344 321.949219 515.175781 319.078125 515.175781 L 294.105469 515.175781 C 294.105469 514.214844 294.039062 513.261719 293.832031 512.296875 C 293.492188 511.066406 293.148438 509.898438 292.808594 508.734375 C 292.535156 507.441406 292.398438 506.132812 292.398438 504.765625 L 292.398438 504.625 L 319.144531 504.625 C 321.949219 504.625 324.34375 507.023438 324.34375 509.898438 Z M 366.144531 515.242188 L 334.675781 515.242188 C 332.074219 515.242188 330.023438 513.121094 330.023438 510.585938 L 330.023438 509.351562 C 330.023438 506.757812 332.144531 504.703125 334.675781 504.703125 L 366.144531 504.703125 C 368.742188 504.703125 370.796875 506.820312 370.796875 509.351562 L 370.796875 510.585938 C 370.863281 513.121094 368.742188 515.242188 366.144531 515.242188 Z M 277.621094 446.207031 L 371.34375 446.207031 L 371.34375 461.554688 L 277.621094 461.554688 Z M 464.453125 479.285156 L 426.894531 452.027344 L 393.78125 495.722656 L 381.261719 412.511719 L 537.992188 389.15625 L 550.035156 454.023438 L 506.386719 422.785156 Z M 543.261719 383.542969 L 376.882812 407.929688 L 391.046875 504.839844 L 557.421875 480.449219 L 543.261719 383.542969 " fill-opacity="1" fill-rule="nonzero"/><path fill="#008037" d="M 536.96875 363.542969 L 525.132812 363.542969 C 524.515625 363.542969 524.039062 363.070312 524.039062 362.449219 C 524.039062 361.832031 524.515625 361.359375 525.132812 361.359375 L 536.96875 361.359375 C 537.582031 361.359375 538.0625 361.832031 538.0625 362.449219 C 538.0625 363.070312 537.582031 363.542969 536.96875 363.542969 Z M 536.96875 367.386719 L 525.132812 367.386719 C 524.515625 367.386719 524.039062 366.898438 524.039062 366.28125 C 524.039062 365.671875 524.515625 365.1875 525.132812 365.1875 L 536.96875 365.1875 C 537.582031 365.1875 538.0625 365.671875 538.0625 366.28125 C 538.0625 366.898438 537.582031 367.386719 536.96875 367.386719 Z M 536.96875 371.152344 L 525.132812 371.152344 C 524.515625 371.152344 524.039062 370.664062 524.039062 370.050781 C 524.039062 369.441406 524.515625 368.953125 525.132812 368.953125 L 536.96875 368.953125 C 537.582031 368.953125 538.0625 369.441406 538.0625 370.050781 C 538.0625 370.664062 537.582031 371.152344 536.96875 371.152344 Z M 517.128906 367.445312 C 517.128906 369.707031 515.28125 371.554688 513.023438 371.554688 L 294.3125 371.554688 C 292.054688 371.554688 290.207031 369.707031 290.207031 367.445312 L 290.207031 363.617188 C 290.207031 361.359375 292.054688 359.507812 294.3125 359.507812 L 513.089844 359.507812 C 515.347656 359.507812 517.195312 361.359375 517.195312 363.617188 Z M 254.769531 356.488281 L 254.769531 375.398438 L 550.101562 375.398438 L 550.101562 356.488281 L 254.769531 356.488281 " fill-opacity="1" fill-rule="nonzero"/><path fill="#008037" d="M 298.964844 483.609375 L 322.359375 487.09375 L 322.359375 484.21875 L 305.394531 478.128906 L 291.4375 464.980469 L 273.035156 462.097656 C 271.394531 462.097656 266.332031 461.824219 261.613281 458.054688 C 255.523438 453.132812 254.90625 446.070312 254.839844 444.914062 L 252.582031 444.914062 C 252.238281 447.441406 251.898438 452.714844 254.222656 458.671875 C 256.070312 463.464844 258.875 466.617188 260.652344 468.328125 Z M 508.097656 489.355469 L 484.699219 492.855469 L 484.699219 489.976562 L 501.667969 483.875 L 515.621094 470.726562 L 534.027344 467.855469 C 535.667969 467.855469 540.730469 467.574219 545.449219 463.808594 C 551.539062 458.878906 552.15625 451.824219 552.222656 450.660156 L 554.617188 450.660156 C 554.960938 453.191406 555.300781 458.472656 552.976562 464.429688 C 551.128906 469.226562 548.324219 472.371094 546.542969 474.082031 L 508.097656 489.355469 " fill-opacity="1" fill-rule="nonzero"/><path fill="#ffffff" d="M 321.882812 486.894531 C 323.042969 487.164062 324.753906 487.503906 326.808594 487.640625 C 329.542969 487.847656 332.691406 487.71875 332.757812 487.375 C 332.757812 487.164062 331.527344 486.75 325.507812 486.003906 C 326.808594 485.109375 327.421875 484.421875 327.285156 484.082031 C 327.082031 483.53125 325.300781 483.53125 321.882812 484.082031 Z M 254.429688 444.699219 C 255.25 440.667969 255.523438 438.535156 255.042969 438.40625 C 254.839844 438.332031 254.496094 438.671875 254.019531 439.496094 C 254.019531 436.214844 253.8125 435.453125 253.539062 435.386719 C 253.128906 435.324219 252.511719 437.378906 252.238281 438.75 C 251.691406 441.207031 251.828125 443.261719 252.035156 444.699219 Z M 285.214844 450.734375 C 285.214844 452.714844 287.949219 454.023438 290.617188 455.453125 C 291.78125 452.164062 289.867188 446.34375 289.867188 446.34375 C 287.609375 447.308594 285.214844 448.886719 285.214844 450.734375 Z M 485.179688 489.773438 C 481.828125 489.21875 479.980469 489.21875 479.773438 489.773438 C 479.636719 490.175781 480.253906 490.800781 481.554688 491.691406 C 475.601562 492.4375 474.300781 492.855469 474.300781 493.058594 C 474.300781 493.402344 477.519531 493.539062 480.253906 493.328125 C 482.304688 493.195312 484.015625 492.855469 485.179688 492.574219 Z M 555.027344 450.453125 C 555.234375 449.023438 555.300781 446.96875 554.824219 444.496094 C 554.550781 443.125 553.933594 441.070312 553.523438 441.144531 C 553.316406 441.144531 553.042969 441.890625 553.042969 445.253906 C 552.566406 444.433594 552.222656 444.089844 552.019531 444.152344 C 551.605469 444.289062 551.8125 446.414062 552.632812 450.453125 Z M 355.335938 305.746094 C 356.910156 303.410156 357.59375 302.113281 357.320312 301.90625 C 357.183594 301.769531 356.773438 301.976562 356.15625 302.460938 C 356.703125 299.851562 356.703125 298.484375 356.359375 298.347656 C 355.8125 298.140625 354.515625 300.058594 352.460938 304.035156 Z M 366.757812 293.347656 C 371.207031 291.90625 373.328125 290.742188 373.257812 289.992188 C 373.191406 289.511719 372.300781 289.238281 370.523438 289.03125 C 374.148438 287.113281 374.832031 286.429688 374.765625 286.15625 C 374.558594 285.742188 371.617188 286.226562 369.152344 287.59375 C 367.308594 288.621094 366.007812 289.921875 365.253906 290.878906 Z M 362.65625 339.648438 L 375.925781 345.875 C 377.570312 344.921875 379.140625 343.957031 380.785156 342.929688 C 379.003906 341.15625 376.335938 338.621094 372.847656 335.804688 C 367.375 331.492188 364.640625 329.300781 361.148438 328.546875 C 353.898438 327.039062 347.058594 332.3125 344.457031 334.574219 L 320.992188 347.792969 L 341.859375 368.753906 L 363.40625 384.570312 L 366.757812 380.535156 L 353.417969 362.996094 L 341.449219 343.820312 L 344.046875 348.003906 C 350.136719 345.265625 356.566406 342.386719 362.65625 339.648438 Z M 517.195312 452.027344 C 517.195312 452.027344 515.28125 457.925781 516.445312 461.136719 C 519.113281 459.699219 521.847656 458.398438 521.847656 456.417969 C 521.847656 454.632812 519.453125 453.054688 517.195312 452.027344 Z M 320.101562 286.496094 C 319.214844 287.863281 318.1875 288.753906 317.433594 289.371094 C 316.136719 289.164062 314.902344 289.847656 314.492188 290.945312 C 314.015625 292.246094 314.699219 293.890625 316.203125 294.441406 C 316.203125 294.78125 316.339844 296.082031 315.382812 297.246094 C 314.699219 298.066406 313.878906 298.410156 313.535156 298.550781 C 313.878906 299.78125 314.289062 301.015625 314.628906 302.246094 C 315.3125 302.457031 316.820312 302.859375 318.734375 302.457031 C 320.238281 302.109375 321.335938 301.425781 321.882812 300.945312 L 321.882812 296.699219 C 322.566406 296.289062 323.523438 295.535156 324.277344 294.300781 C 326.054688 291.425781 325.234375 288.070312 324.617188 285.605469 C 324.277344 284.097656 323.523438 281.835938 321.8125 279.304688 C 321.949219 280.402344 322.019531 283.480469 320.101562 286.496094 Z M 525.269531 536.132812 L 525.882812 536.132812 L 525.335938 540.378906 Z M 525.269531 536.132812 " fill-opacity="1" fill-rule="nonzero"/><g clip-path="url(#f2c043a550)"><path fill="#545454" d="M 362.519531 386.5625 L 311.414062 386.5625 L 311.414062 390.59375 L 362.519531 390.59375 Z M 363.269531 391.355469 L 310.59375 391.355469 L 310.59375 385.734375 L 363.269531 385.734375 Z M 557.011719 480.109375 L 554.414062 462.507812 C 554.207031 463.191406 554 463.875 553.726562 464.5625 C 552.292969 468.199219 550.035156 471.621094 547.230469 474.363281 C 547.640625 474.703125 547.980469 475.109375 548.324219 475.59375 C 549.417969 477.101562 550.101562 479.082031 550.238281 481.136719 Z M 549.691406 484.765625 C 547.160156 491.613281 536.417969 492.167969 536.078125 497.574219 C 535.734375 502.160156 542.917969 503.941406 542.371094 508.324219 C 542.097656 510.378906 540.25 512.371094 537.855469 513.804688 C 537.855469 513.871094 537.925781 513.871094 537.925781 513.949219 C 537.992188 515.035156 537.992188 516.140625 537.789062 517.167969 C 537.445312 519.488281 536.625 521.75 535.257812 523.804688 L 534.710938 535.71875 L 549.691406 535.71875 Z M 533.890625 540.65625 C 533.820312 540.582031 533.75 540.453125 533.75 540.378906 L 534.574219 523.734375 C 534.574219 523.671875 534.574219 523.597656 534.640625 523.535156 C 535.941406 521.542969 536.832031 519.425781 537.105469 517.167969 C 537.242188 516.199219 537.242188 515.242188 537.242188 514.289062 C 534.640625 515.660156 531.496094 516.269531 529.03125 515.585938 C 529.375 516.613281 529.648438 518.058594 529.304688 519.832031 C 528.964844 521.542969 528.140625 522.777344 527.457031 523.535156 L 525.609375 535.582031 L 525.746094 540.316406 L 530.535156 549.074219 L 549.074219 562.710938 L 552.839844 558.257812 Z M 519.316406 571.132812 L 525.746094 571.132812 L 524.859375 535.445312 L 526.707031 523.253906 C 526.707031 523.195312 526.773438 523.117188 526.773438 523.050781 C 527.390625 522.363281 528.140625 521.199219 528.484375 519.625 C 528.828125 517.914062 528.484375 516.480469 528.140625 515.585938 C 528.074219 515.515625 528.140625 515.378906 528.140625 515.316406 C 528.003906 515.242188 527.867188 515.175781 527.730469 515.113281 C 524.242188 513.261719 525.816406 509.214844 521.984375 503.941406 C 520.546875 501.960938 518.90625 500.59375 517.265625 499.566406 L 510.765625 534.417969 Z M 485.589844 492.375 L 508.578125 488.949219 C 508.714844 488.949219 508.851562 488.949219 508.917969 489.085938 C 513.023438 485.109375 521.710938 481.273438 521.164062 476.203125 C 520.890625 473.808594 518.703125 472.308594 516.511719 470.863281 C 516.511719 470.863281 516.511719 470.9375 516.445312 470.9375 L 502.488281 484.082031 C 502.417969 484.15625 502.417969 484.15625 502.351562 484.15625 L 485.660156 490.175781 L 485.660156 492.375 Z M 484.769531 492.511719 L 484.769531 490.246094 C 480.664062 489.558594 480.1875 490.039062 480.117188 490.039062 C 480.117188 490.039062 480.1875 490.457031 481.757812 491.546875 C 481.894531 491.613281 481.964844 491.828125 481.894531 491.957031 C 481.828125 492.09375 481.757812 492.230469 481.554688 492.230469 C 478.339844 492.640625 476.558594 492.984375 475.601562 493.121094 C 476.695312 493.195312 478.40625 493.195312 480.1875 493.121094 C 481.757812 493.121094 483.332031 492.855469 484.769531 492.511719 Z M 517.46875 452.578125 C 517.058594 453.878906 516.035156 457.988281 516.71875 460.589844 L 516.921875 460.527344 C 519.316406 459.296875 521.574219 458.054688 521.574219 456.480469 C 521.507812 455.246094 520.070312 453.878906 517.46875 452.578125 Z M 391.386719 504.359375 L 474.234375 492.230469 C 474.4375 492.230469 474.644531 492.375 474.644531 492.574219 L 474.644531 492.71875 C 475.398438 492.4375 477.039062 492.167969 480.597656 491.691406 C 479.636719 490.929688 479.296875 490.382812 479.5 489.832031 C 479.707031 489.21875 480.597656 488.804688 485.179688 489.558594 L 501.941406 483.472656 L 515.757812 470.457031 C 513.570312 469.089844 511.65625 467.71875 511.792969 465.800781 C 511.929688 463.953125 513.980469 462.582031 516.238281 461.410156 C 516.171875 461.351562 516.101562 461.351562 516.101562 461.210938 C 514.9375 457.851562 516.71875 452.164062 516.855469 451.824219 C 516.71875 451.761719 516.582031 451.6875 516.445312 451.625 C 516.785156 450.050781 517.195312 448.398438 517.539062 446.832031 C 527.046875 445.804688 531.082031 447.917969 532.929688 450.316406 C 536.625 455.1875 532.179688 462.238281 534.300781 467.375 L 534.4375 467.375 C 536.832031 467.375 541.414062 466.828125 545.585938 463.40625 C 551.195312 458.878906 552.085938 452.507812 552.222656 450.523438 C 551.128906 445.316406 551.265625 444.226562 551.675781 443.886719 L 546.269531 406.964844 L 528.621094 385.9375 L 387.695312 406.558594 L 381.125 431.34375 C 381.058594 431.558594 380.921875 431.621094 380.785156 431.621094 L 380.714844 431.621094 Z M 380.578125 430.660156 L 386.871094 406.828125 L 377.296875 408.195312 Z M 387.96875 405.9375 L 528.140625 385.390625 L 527.390625 384.507812 L 474.371094 346.632812 L 456.925781 346.632812 L 388.378906 404.367188 Z M 457.816406 345.875 L 473.207031 345.875 L 466.84375 341.359375 C 465.886719 341.285156 465.066406 340.941406 464.246094 340.46875 Z M 542.988281 384.019531 L 529.648438 386.015625 L 546.203125 405.738281 Z M 475.671875 346.632812 L 527.867188 383.882812 L 527.9375 383.960938 L 529.03125 385.253906 L 543.261719 383.199219 C 543.328125 383.199219 543.464844 383.199219 543.535156 383.273438 C 543.601562 383.335938 543.671875 383.40625 543.671875 383.542969 L 547.09375 406.828125 L 549.074219 409.222656 C 549.214844 409.359375 549.214844 409.640625 549.007812 409.773438 C 548.871094 409.910156 548.597656 409.910156 548.460938 409.703125 L 547.296875 408.273438 L 549.761719 425.050781 L 549.761719 346.632812 Z M 552.15625 444.835938 C 552.15625 445.316406 552.222656 446.6875 552.90625 450.179688 L 554.617188 450.179688 C 554.824219 448.335938 554.753906 446.488281 554.34375 444.699219 C 554.070312 443.542969 553.726562 442.515625 553.523438 441.960938 C 553.453125 442.378906 553.316406 443.332031 553.386719 445.386719 C 553.386719 445.597656 553.25 445.726562 553.113281 445.726562 C 552.976562 445.804688 552.769531 445.726562 552.703125 445.523438 C 552.496094 445.253906 552.292969 444.972656 552.15625 444.835938 Z M 546.683594 473.808594 C 549.417969 471.144531 551.605469 467.855469 552.976562 464.292969 C 553.453125 462.988281 553.863281 461.753906 554.136719 460.527344 L 554.136719 460.453125 C 555.027344 456.761719 554.960938 453.398438 554.6875 451 L 553.042969 451 C 552.839844 453.335938 551.742188 459.636719 546.132812 464.089844 C 541.894531 467.511719 537.242188 468.125 534.710938 468.199219 C 534.914062 468.601562 535.1875 469.011719 535.53125 469.355469 C 538.609375 472.78125 543.191406 471.34375 546.683594 473.808594 C 546.613281 473.808594 546.683594 473.808594 546.683594 473.808594 Z M 432.777344 531.269531 L 324.824219 531.269531 L 324.824219 542.089844 L 415.195312 542.089844 C 415.398438 542.089844 415.605469 542.292969 415.605469 542.507812 L 415.605469 560.03125 L 432.777344 560.03125 Z M 414.851562 542.910156 L 306.898438 542.910156 L 306.898438 571.675781 L 414.851562 571.675781 Z M 296.296875 528.671875 L 289.796875 493.804688 C 288.15625 494.832031 286.511719 496.203125 285.078125 498.195312 C 281.246094 503.46875 282.820312 507.441406 279.328125 509.351562 C 279.191406 509.421875 279.054688 509.496094 278.917969 509.558594 C 278.917969 509.632812 278.988281 509.761719 278.917969 509.839844 C 278.578125 510.722656 278.234375 512.160156 278.578125 513.871094 C 278.917969 515.515625 279.671875 516.613281 280.289062 517.296875 C 280.355469 517.371094 280.355469 517.433594 280.355469 517.507812 L 282.203125 529.699219 L 282.066406 534.691406 L 282.066406 534.761719 L 281.3125 565.375 L 287.746094 565.375 Z M 281.3125 534.492188 L 281.449219 529.699219 L 279.605469 517.714844 C 278.917969 516.953125 278.097656 515.722656 277.757812 514.007812 C 277.414062 512.296875 277.6875 510.789062 278.03125 509.761719 C 275.566406 510.449219 272.421875 509.839844 269.820312 508.46875 C 269.753906 509.421875 269.820312 510.378906 269.957031 511.34375 C 270.300781 513.605469 271.121094 515.722656 272.421875 517.714844 C 272.488281 517.777344 272.488281 517.851562 272.488281 517.914062 L 273.308594 534.554688 C 273.308594 534.691406 273.242188 534.761719 273.171875 534.835938 L 254.15625 552.363281 L 257.917969 556.8125 L 276.457031 543.191406 Z M 271.1875 535.71875 L 272.558594 534.417969 L 271.804688 518.058594 C 270.4375 516.003906 269.617188 513.804688 269.273438 511.40625 C 269.136719 510.378906 269.066406 509.289062 269.136719 508.1875 C 269.136719 508.125 269.136719 508.050781 269.207031 508.050781 C 266.8125 506.613281 264.964844 504.625 264.691406 502.570312 C 264.144531 498.195312 271.324219 496.410156 270.984375 491.828125 C 270.574219 486.210938 259.011719 485.792969 257.097656 478.054688 C 256.414062 475.175781 257.164062 471.964844 258.738281 469.773438 C 259.082031 469.289062 259.492188 468.882812 259.832031 468.539062 C 258.054688 466.753906 256.480469 464.699219 255.179688 462.507812 L 255.179688 535.660156 L 271.1875 535.660156 Z M 254.085938 458.535156 C 255.453125 462.097656 257.644531 465.382812 260.378906 468.0625 L 260.378906 468.125 C 263.867188 465.664062 268.453125 467.035156 271.460938 463.671875 C 271.804688 463.328125 272.078125 462.925781 272.285156 462.507812 C 269.753906 462.4375 265.101562 461.824219 260.859375 458.398438 C 255.316406 453.945312 254.222656 447.652344 253.949219 445.316406 L 252.308594 445.316406 C 252.035156 448.46875 252.035156 453.261719 254.085938 458.535156 Z M 252.375 444.496094 L 254.085938 444.496094 C 254.839844 440.933594 254.90625 439.640625 254.839844 439.152344 C 254.703125 439.296875 254.566406 439.496094 254.359375 439.90625 C 254.292969 440.042969 254.085938 440.117188 253.949219 440.117188 C 253.8125 440.042969 253.675781 439.90625 253.675781 439.777344 C 253.675781 437.785156 253.605469 436.824219 253.539062 436.351562 C 253.265625 436.898438 252.921875 437.925781 252.71875 439.089844 C 252.308594 440.804688 252.171875 442.644531 252.375 444.496094 Z M 254.429688 438.269531 L 254.429688 438.46875 L 254.496094 438.40625 C 254.429688 438.40625 254.429688 438.332031 254.429688 438.269531 Z M 289.589844 446.832031 C 286.921875 448.125 285.554688 449.496094 285.554688 450.734375 C 285.554688 452.308594 287.8125 453.535156 290.207031 454.769531 L 290.414062 454.84375 C 291.027344 452.234375 290.003906 448.125 289.589844 446.832031 Z M 290.6875 465.179688 C 288.496094 466.617188 286.308594 468.125 286.035156 470.519531 C 285.488281 475.519531 294.175781 479.363281 298.28125 483.394531 C 298.347656 483.328125 298.484375 483.265625 298.621094 483.265625 L 321.609375 486.691406 L 321.609375 484.558594 L 304.914062 478.535156 C 304.847656 478.535156 304.847656 478.472656 304.777344 478.472656 L 290.824219 465.320312 C 290.6875 465.246094 290.6875 465.179688 290.6875 465.179688 Z M 322.292969 484.558594 L 322.292969 486.820312 C 323.796875 487.164062 325.300781 487.375 326.875 487.503906 C 328.65625 487.640625 330.363281 487.640625 331.460938 487.503906 C 330.5 487.300781 328.792969 487.03125 325.507812 486.613281 C 325.371094 486.613281 325.234375 486.476562 325.164062 486.347656 C 325.097656 486.210938 325.164062 486.003906 325.300781 485.929688 C 326.875 484.839844 326.945312 484.421875 326.945312 484.421875 C 326.875 484.292969 326.398438 483.875 322.292969 484.558594 Z M 293.355469 508.8125 L 295.203125 518.597656 L 315.039062 518.597656 C 317.707031 518.597656 319.964844 516.40625 319.964844 513.667969 C 319.964844 510.925781 317.777344 508.734375 315.039062 508.734375 L 293.355469 508.734375 Z M 376.199219 345.875 Z M 348.972656 345.875 L 375.722656 345.875 L 362.65625 339.710938 Z M 467.734375 242.59375 C 467.734375 238.210938 464.175781 234.652344 459.800781 234.652344 C 458.226562 234.652344 456.652344 235.128906 455.351562 236.023438 C 453.164062 237.527344 451.863281 239.925781 451.863281 242.59375 C 451.863281 246.980469 455.421875 250.539062 459.800781 250.539062 C 464.175781 250.539062 467.734375 246.980469 467.734375 242.59375 Z M 557.832031 480.390625 C 557.832031 480.585938 557.695312 480.792969 557.492188 480.792969 L 550.511719 481.820312 L 550.511719 536.0625 C 550.511719 536.269531 550.308594 536.472656 550.101562 536.472656 L 534.710938 536.472656 L 534.503906 540.171875 L 553.660156 557.839844 C 553.796875 557.976562 553.796875 558.257812 553.660156 558.390625 L 553.589844 558.464844 L 556.121094 561.472656 C 550.992188 569.691406 547.980469 573.59375 547.023438 573.1875 C 546.269531 572.847656 546.886719 569.621094 548.9375 563.527344 C 548.871094 563.527344 548.871094 563.527344 548.800781 563.457031 L 529.921875 549.5625 C 529.851562 549.5625 529.851562 549.484375 529.785156 549.417969 L 525.679688 541.882812 L 526.433594 571.476562 C 526.433594 571.613281 526.363281 571.675781 526.296875 571.746094 C 526.226562 571.820312 526.089844 571.882812 526.019531 571.882812 L 525.953125 571.882812 L 525.199219 575.585938 C 513.914062 576.46875 508.167969 576.46875 508.027344 575.585938 C 507.890625 574.828125 511.382812 573.53125 518.496094 571.613281 L 510.492188 536.472656 L 433.597656 536.472656 L 433.597656 560.375 C 433.597656 560.582031 433.390625 560.785156 433.1875 560.785156 L 415.605469 560.785156 L 415.605469 572.019531 C 415.605469 572.222656 415.398438 572.429688 415.195312 572.429688 L 306.488281 572.429688 C 306.285156 572.429688 306.078125 572.222656 306.078125 572.019531 L 306.078125 542.507812 C 306.078125 542.292969 306.285156 542.089844 306.488281 542.089844 L 324.070312 542.089844 L 324.070312 536.472656 L 295.269531 536.472656 L 288.496094 565.855469 C 295.542969 567.773438 299.03125 569.082031 298.964844 569.828125 C 298.828125 570.71875 293.082031 570.71875 281.792969 569.828125 L 281.039062 566.136719 L 280.972656 566.136719 C 280.835938 566.136719 280.765625 566.058594 280.699219 566 C 280.628906 565.921875 280.5625 565.792969 280.5625 565.71875 L 281.3125 536.132812 L 277.210938 543.664062 C 277.210938 543.738281 277.140625 543.738281 277.074219 543.800781 L 258.191406 557.703125 C 258.191406 557.703125 258.121094 557.703125 258.054688 557.78125 C 260.105469 563.867188 260.722656 567.085938 259.96875 567.429688 C 259.082031 567.910156 256 564.003906 250.871094 555.726562 L 253.402344 552.703125 L 253.332031 552.644531 C 253.195312 552.5 253.195312 552.226562 253.332031 552.09375 L 270.230469 536.472656 L 254.703125 536.472656 C 254.496094 536.472656 254.292969 536.269531 254.292969 536.0625 L 254.292969 462.378906 C 254.292969 462.164062 254.496094 461.960938 254.703125 461.960938 L 254.769531 461.960938 C 254.222656 460.933594 253.675781 459.84375 253.265625 458.742188 C 251.074219 453.191406 251.144531 448.125 251.554688 444.835938 C 251.28125 442.78125 251.351562 440.804688 251.828125 438.8125 C 252.648438 435.042969 253.332031 435.113281 253.539062 435.1875 C 253.949219 435.25 254.222656 435.53125 254.292969 438.125 L 254.292969 346.214844 C 254.292969 346.011719 254.496094 345.8125 254.703125 345.8125 L 318.460938 345.8125 C 318.667969 345.8125 318.871094 346.011719 318.871094 346.214844 C 318.871094 346.421875 318.667969 346.632812 318.460938 346.632812 L 255.113281 346.632812 L 255.113281 438.195312 C 255.660156 438.40625 255.933594 439.015625 254.703125 444.914062 C 254.839844 446.832031 255.726562 453.261719 261.335938 457.789062 C 265.511719 461.136719 270.09375 461.691406 272.488281 461.753906 L 272.625 461.753906 C 274.746094 456.617188 270.367188 449.570312 273.992188 444.699219 C 275.839844 442.304688 279.878906 440.117188 289.386719 441.207031 C 289.726562 442.78125 290.140625 444.433594 290.480469 446 C 290.34375 446.070312 290.207031 446.144531 290.070312 446.207031 C 290.207031 446.550781 291.984375 452.234375 290.824219 455.589844 C 290.824219 455.660156 290.753906 455.734375 290.6875 455.796875 C 292.875 456.960938 294.929688 458.328125 295.132812 460.183594 C 295.269531 462.097656 293.355469 463.40625 291.164062 464.835938 L 304.984375 477.847656 L 321.746094 483.949219 C 326.398438 483.191406 327.21875 483.609375 327.421875 484.21875 C 327.628906 484.695312 327.285156 485.246094 326.328125 486.066406 C 333.03125 486.957031 332.964844 487.300781 332.964844 487.71875 C 332.964844 488.121094 332.554688 488.328125 330.636719 488.402344 L 329.203125 488.402344 C 328.3125 488.402344 327.421875 488.402344 326.601562 488.328125 C 324.960938 488.191406 323.25 487.984375 321.609375 487.582031 L 298.691406 484.15625 C 299.714844 485.320312 300.265625 486.476562 300.058594 487.640625 C 299.578125 490.664062 294.929688 490.800781 290.277344 493.464844 C 290.277344 493.539062 290.34375 493.539062 290.34375 493.601562 L 293.082031 508.125 L 314.902344 508.125 C 318.050781 508.125 320.582031 510.660156 320.582031 513.804688 C 320.582031 516.953125 318.050781 519.488281 314.902344 519.488281 L 295.203125 519.488281 L 296.910156 528.671875 L 296.910156 528.808594 L 295.269531 535.789062 L 323.867188 535.789062 L 323.867188 530.996094 C 323.867188 530.789062 324.070312 530.582031 324.277344 530.582031 L 433.1875 530.582031 C 433.390625 530.582031 433.597656 530.789062 433.597656 530.996094 L 433.597656 535.789062 L 510.355469 535.789062 L 510.082031 534.554688 L 510.082031 534.417969 L 516.648438 499.359375 C 516.648438 499.285156 516.648438 499.285156 516.71875 499.222656 C 512.066406 496.546875 507.414062 496.410156 506.933594 493.402344 C 506.730469 492.167969 507.277344 491.003906 508.304688 489.902344 L 485.386719 493.328125 C 483.742188 493.746094 482.101562 493.941406 480.390625 494.085938 C 479.707031 494.148438 478.679688 494.148438 477.722656 494.148438 C 476.148438 494.148438 474.574219 494.085938 474.234375 493.746094 C 474.164062 493.667969 474.097656 493.539062 474.097656 493.402344 C 474.097656 493.328125 474.097656 493.195312 474.164062 493.121094 L 391.25 505.242188 L 391.183594 505.242188 C 391.113281 505.242188 391.046875 505.242188 390.976562 505.179688 C 390.910156 505.105469 390.839844 505.042969 390.839844 504.902344 L 377.089844 411.828125 L 279.464844 411.828125 C 279.261719 411.828125 279.054688 411.621094 279.054688 411.414062 C 279.054688 411.21875 279.261719 411.011719 279.464844 411.011719 L 376.953125 411.011719 L 376.472656 407.929688 C 376.472656 407.71875 376.609375 407.511719 376.816406 407.511719 L 387.144531 406.003906 L 387.695312 404.027344 C 387.695312 403.949219 387.761719 403.882812 387.832031 403.820312 L 455.761719 346.632812 L 392.824219 346.632812 C 392.757812 346.632812 392.6875 346.632812 392.6875 346.558594 C 391.796875 347.320312 386.734375 347.585938 377.570312 347.378906 L 376.816406 346.496094 C 376.746094 346.558594 376.679688 346.558594 376.609375 346.558594 L 347.332031 346.558594 L 344.730469 347.722656 L 353.828125 362.386719 L 367.171875 379.910156 L 367.171875 379.980469 C 372.4375 377.109375 375.378906 376.007812 375.859375 376.691406 C 376.472656 377.515625 373.464844 381.144531 366.828125 387.382812 L 363.75 384.433594 C 363.679688 384.507812 363.542969 384.570312 363.476562 384.570312 C 363.40625 384.570312 363.339844 384.570312 363.269531 384.507812 L 341.722656 368.609375 L 320.789062 347.660156 C 320.652344 347.523438 320.652344 347.242188 320.789062 347.105469 C 320.925781 346.976562 321.199219 346.976562 321.335938 347.105469 L 342.199219 368.070312 L 363.40625 383.679688 L 366.347656 380.191406 L 353.144531 362.859375 L 341.175781 343.613281 C 341.035156 343.414062 341.105469 343.210938 341.3125 343.074219 C 341.515625 342.929688 341.722656 342.996094 341.859375 343.210938 L 344.320312 347.105469 C 344.320312 347.105469 344.390625 347.039062 344.457031 347.039062 L 347.125 345.875 L 362.65625 338.886719 C 362.792969 338.820312 362.859375 338.820312 362.996094 338.886719 L 376.132812 345.050781 L 380.375 342.523438 C 377.980469 340.128906 375.449219 337.859375 372.847656 335.804688 C 367.445312 331.492188 364.707031 329.375 361.355469 328.613281 C 354.652344 327.175781 348.21875 331.773438 345.003906 334.574219 C 344.867188 334.710938 344.59375 334.710938 344.457031 334.511719 C 344.320312 334.367188 344.320312 334.09375 344.527344 333.964844 C 347.878906 331.011719 354.582031 326.355469 361.558594 327.800781 C 365.117188 328.546875 367.855469 330.746094 373.394531 335.121094 C 376.199219 337.3125 378.867188 339.710938 381.332031 342.242188 C 381.398438 342.3125 381.46875 342.449219 381.46875 342.585938 C 388.035156 343.957031 391.796875 345.050781 392.824219 345.875 C 392.894531 345.8125 392.960938 345.738281 393.097656 345.738281 L 456.996094 345.738281 L 464.039062 339.785156 C 463.699219 339.503906 463.355469 339.160156 463.082031 338.820312 C 461.921875 337.3125 461.578125 335.257812 462.195312 333.484375 C 462.671875 332.113281 463.628906 331.148438 464.519531 330.402344 C 464.929688 329.984375 465.339844 329.640625 465.683594 329.230469 C 466.570312 328.066406 467.121094 326.558594 467.257812 324.921875 L 467.257812 324.847656 C 464.246094 324.300781 461.988281 321.699219 461.988281 318.554688 C 461.988281 315.128906 464.726562 312.316406 468.078125 312.179688 L 468.078125 246.160156 C 466.707031 249.171875 463.699219 251.296875 460.140625 251.296875 C 455.351562 251.296875 451.453125 247.390625 451.453125 242.597656 C 451.453125 240.882812 451.933594 239.3125 452.820312 237.941406 L 374.695312 286.910156 C 374.214844 287.320312 373.328125 287.867188 371.683594 288.757812 C 372.917969 289.03125 373.464844 289.375 373.601562 289.921875 C 373.738281 290.675781 372.984375 291.636719 366.964844 293.691406 L 357.796875 302.042969 C 357.796875 302.519531 357.320312 303.488281 355.675781 305.945312 C 355.609375 306.089844 355.472656 306.089844 355.335938 306.089844 C 355.265625 306.089844 355.199219 306.089844 355.128906 306.015625 C 354.925781 305.882812 354.925781 305.671875 355.0625 305.464844 C 356.222656 303.753906 356.703125 302.863281 356.910156 302.382812 C 356.773438 302.460938 356.636719 302.589844 356.429688 302.726562 C 356.292969 302.800781 356.15625 302.863281 356.019531 302.726562 C 355.882812 302.664062 355.8125 302.460938 355.8125 302.320312 C 356.292969 299.785156 356.292969 298.960938 356.222656 298.6875 C 355.949219 298.894531 355.0625 299.855469 352.804688 304.097656 C 352.734375 304.300781 352.460938 304.378906 352.257812 304.234375 C 352.050781 304.171875 351.984375 303.890625 352.121094 303.691406 C 355.199219 297.867188 355.949219 297.59375 356.496094 297.800781 C 356.976562 298.003906 357.25 298.6875 356.703125 301.429688 C 356.910156 301.359375 357.046875 301.292969 357.25 301.292969 L 366.484375 292.867188 C 366.484375 292.867188 366.554688 292.867188 366.554688 292.796875 C 366.554688 292.796875 366.621094 292.796875 366.621094 292.730469 C 372.78125 290.675781 372.847656 289.851562 372.847656 289.785156 C 372.847656 289.785156 372.710938 289.375 370.453125 289.101562 C 370.316406 289.101562 370.179688 288.964844 370.113281 288.757812 C 370.113281 288.621094 370.179688 288.417969 370.316406 288.347656 C 370.660156 288.140625 371 288.003906 371.34375 287.796875 L 374.078125 286.085938 C 373.191406 286.15625 371.207031 286.636719 369.289062 287.664062 C 367.855469 288.484375 366.621094 289.511719 365.527344 290.878906 C 365.390625 291.019531 365.117188 291.085938 364.980469 290.949219 C 364.84375 290.8125 364.777344 290.539062 364.914062 290.402344 C 366.074219 288.964844 367.375 287.867188 368.949219 287.046875 C 371.207031 285.8125 373.941406 285.199219 374.765625 285.472656 C 374.832031 285.539062 374.902344 285.539062 374.96875 285.609375 L 453.4375 236.433594 C 453.503906 236.367188 453.640625 236.367188 453.777344 236.367188 C 454.121094 236.023438 454.53125 235.679688 454.941406 235.40625 C 456.378906 234.449219 458.089844 233.898438 459.800781 233.898438 C 463.699219 233.898438 467.050781 236.503906 468.078125 240.0625 C 468.28125 240.0625 468.488281 240.269531 468.488281 240.476562 L 468.488281 312.3125 C 471.769531 312.59375 474.4375 315.332031 474.4375 318.679688 C 474.4375 321.839844 472.179688 324.433594 469.171875 324.980469 L 469.171875 325.1875 C 469.035156 327.316406 468.28125 329.371094 467.121094 330.804688 C 466.707031 331.351562 466.160156 331.832031 465.683594 332.25 C 464.929688 332.933594 464.246094 333.542969 463.972656 334.433594 C 463.628906 335.460938 463.835938 336.699219 464.519531 337.589844 C 465.410156 338.753906 466.84375 339.300781 468.28125 338.960938 C 469.789062 338.617188 470.882812 337.445312 471.222656 335.941406 C 471.359375 335.332031 471.976562 334.914062 472.59375 335.050781 C 473.207031 335.191406 473.617188 335.804688 473.480469 336.417969 C 472.933594 338.816406 471.15625 340.671875 468.761719 341.152344 C 468.554688 341.214844 468.351562 341.214844 468.144531 341.28125 L 474.507812 345.808594 L 550.035156 345.808594 C 550.238281 345.808594 550.445312 346.007812 550.445312 346.214844 L 550.445312 427.308594 C 550.445312 427.507812 550.308594 427.710938 550.035156 427.710938 L 552.429688 444.148438 C 552.496094 444.226562 552.496094 444.226562 552.566406 444.285156 C 552.632812 441.347656 552.90625 441.066406 553.386719 441.007812 C 554 440.929688 554.550781 442.171875 555.097656 444.628906 C 555.507812 446.621094 555.574219 448.601562 555.371094 450.65625 C 555.710938 453.191406 555.78125 456.683594 554.890625 460.660156 Z M 298.210938 364.644531 C 298.210938 363.542969 297.320312 362.589844 296.160156 362.589844 C 295.066406 362.589844 294.105469 363.476562 294.105469 364.644531 C 294.105469 365.734375 294.996094 366.699219 296.160156 366.699219 C 297.320312 366.699219 298.210938 365.808594 298.210938 364.644531 Z M 298.964844 364.644531 C 298.964844 365.1875 298.828125 365.671875 298.554688 366.078125 L 300.878906 367.996094 C 301.015625 368.132812 301.085938 368.414062 300.949219 368.550781 C 300.878906 368.609375 300.742188 368.679688 300.675781 368.679688 C 300.605469 368.679688 300.46875 368.679688 300.402344 368.609375 L 298.074219 366.699219 C 297.597656 367.179688 296.910156 367.445312 296.160156 367.445312 C 294.585938 367.445312 293.355469 366.214844 293.355469 364.644531 C 293.355469 363.070312 294.585938 361.832031 296.160156 361.832031 C 297.734375 361.832031 298.964844 363.132812 298.964844 364.644531 Z M 311.347656 398.128906 L 346.511719 398.128906 L 346.511719 394.09375 L 311.347656 394.09375 Z M 310.59375 393.335938 L 347.332031 393.335938 L 347.332031 398.949219 L 310.59375 398.949219 Z M 324.277344 285.605469 C 323.867188 283.890625 323.183594 282.179688 322.292969 280.605469 C 322.222656 282.25 321.8125 284.511719 320.445312 286.632812 C 319.691406 287.796875 318.804688 288.753906 317.640625 289.578125 C 317.570312 289.648438 317.433594 289.648438 317.367188 289.648438 C 316.273438 289.441406 315.175781 290.054688 314.835938 291.015625 C 314.628906 291.5625 314.628906 292.179688 314.902344 292.730469 C 315.175781 293.34375 315.726562 293.824219 316.339844 294.03125 C 316.476562 294.097656 316.613281 294.234375 316.613281 294.371094 C 316.683594 294.917969 316.683594 296.21875 315.726562 297.453125 C 315.175781 298.136719 314.5625 298.550781 314.015625 298.753906 L 314.972656 301.90625 C 315.863281 302.179688 317.160156 302.382812 318.667969 302.042969 C 319.691406 301.835938 320.652344 301.355469 321.539062 300.742188 L 321.539062 296.632812 C 321.539062 296.496094 321.609375 296.355469 321.746094 296.289062 C 322.703125 295.671875 323.457031 294.917969 324.003906 294.03125 C 325.644531 291.289062 324.824219 288 324.277344 285.605469 Z M 305.050781 290.675781 C 304.4375 285.195312 308.542969 281.566406 308.953125 281.222656 C 309.429688 277.386719 312.371094 274.511719 315.929688 274.167969 C 318.871094 273.894531 321.746094 275.46875 323.25 278.207031 C 323.523438 279.648438 323.730469 281.015625 324.003906 282.457031 C 324.414062 283.484375 324.753906 284.441406 325.027344 285.539062 C 325.644531 288.070312 326.464844 291.496094 324.617188 294.578125 C 324.003906 295.535156 323.25 296.355469 322.292969 296.972656 L 322.292969 301.015625 C 322.292969 301.152344 322.222656 301.21875 322.15625 301.289062 C 321.199219 302.042969 320.035156 302.585938 318.871094 302.859375 C 318.257812 303.003906 317.640625 303.066406 317.09375 303.066406 C 316.066406 303.066406 315.175781 302.859375 314.5625 302.664062 C 314.425781 302.585938 314.355469 302.519531 314.289062 302.382812 L 313.605469 300.054688 C 308.953125 298.824219 305.601562 295.058594 305.050781 290.675781 Z M 361.558594 508.804688 L 331.253906 508.804688 C 328.585938 508.804688 326.328125 510.996094 326.328125 513.738281 C 326.328125 516.476562 328.519531 518.660156 331.253906 518.660156 L 361.558594 518.660156 C 364.226562 518.660156 366.484375 516.476562 366.484375 513.738281 C 366.484375 510.996094 364.296875 508.804688 361.558594 508.804688 Z M 331.253906 508.046875 L 361.558594 508.046875 C 364.707031 508.046875 367.238281 510.578125 367.238281 513.738281 C 367.238281 516.878906 364.707031 519.421875 361.558594 519.421875 L 331.253906 519.421875 C 328.105469 519.421875 325.574219 516.878906 325.574219 513.738281 C 325.574219 510.578125 328.105469 508.046875 331.253906 508.046875 Z M 402.46875 560.371094 L 337.410156 560.371094 L 337.410156 561.738281 L 402.539062 561.738281 L 402.539062 560.371094 Z M 395.082031 556.40625 L 337.410156 556.40625 L 337.410156 558.316406 L 395.082031 558.316406 Z M 402.46875 552.835938 L 337.410156 552.835938 L 337.410156 554.488281 L 402.46875 554.488281 Z M 321.8125 557.773438 L 315.109375 565.371094 C 315.65625 565.648438 316.203125 565.789062 316.820312 565.789062 L 326.464844 565.789062 C 327.285156 565.789062 327.96875 565.507812 328.585938 565.101562 Z M 314.355469 549.617188 C 313.605469 550.300781 313.058594 551.328125 313.058594 552.433594 L 313.058594 562.082031 C 313.058594 563.316406 313.671875 564.417969 314.628906 565.101562 L 321.472656 557.355469 Z M 328.996094 564.761719 C 329.75 564.074219 330.160156 563.109375 330.160156 562.019531 L 330.160156 552.355469 C 330.160156 551.269531 329.679688 550.242188 328.929688 549.554688 L 322.15625 557.226562 Z M 314.765625 549.273438 C 315.382812 548.933594 316.066406 548.664062 316.75 548.664062 L 326.398438 548.664062 C 327.148438 548.664062 327.832031 548.871094 328.449219 549.273438 L 321.746094 556.882812 L 314.765625 549.273438 " fill-opacity="1" fill-rule="nonzero"/></g><path fill="#008037" d="M 318.734375 302.460938 C 316.886719 302.863281 315.382812 302.519531 314.628906 302.25 C 312.644531 305.261719 310.457031 309.574219 309.5 315.054688 C 306.488281 331.832031 317.503906 345.050781 319.417969 347.378906 C 321.882812 347.585938 327.285156 347.722656 333.101562 344.847656 C 340.421875 341.285156 343.910156 335.394531 345.074219 333.277344 L 333.375 319.101562 C 335.015625 319.644531 339.394531 320.875 344.320312 319.101562 C 353.078125 315.945312 355.265625 306.355469 355.402344 305.746094 L 352.460938 304.097656 C 351.640625 305.199219 348.972656 308.683594 344.117188 309.917969 C 341.242188 310.679688 338.847656 310.335938 337.410156 310.054688 C 340.898438 307.597656 344.730469 305.0625 348.972656 302.519531 C 355.265625 298.828125 361.21875 295.8125 366.757812 293.347656 L 365.253906 290.949219 L 321.882812 300.949219 C 321.265625 301.359375 320.238281 302.113281 318.734375 302.460938 Z M 337.136719 431.621094 L 329.816406 439.90625 C 330.363281 440.179688 330.980469 440.386719 331.664062 440.386719 L 342.132812 440.386719 C 343.019531 440.386719 343.773438 440.117188 344.457031 439.640625 Z M 328.996094 422.785156 C 328.105469 423.542969 327.558594 424.632812 327.558594 425.867188 L 327.558594 436.351562 C 327.558594 437.722656 328.242188 438.878906 329.269531 439.640625 L 336.660156 431.214844 Z M 344.9375 439.296875 C 345.757812 438.535156 346.234375 437.507812 346.234375 436.351562 L 346.234375 425.867188 C 346.234375 424.632812 345.6875 423.605469 344.867188 422.859375 L 337.546875 431.214844 Z M 337.136719 430.734375 L 344.457031 422.441406 C 343.84375 422.03125 343.019531 421.757812 342.199219 421.757812 L 331.734375 421.757812 C 330.914062 421.757812 330.160156 422.03125 329.542969 422.441406 Z M 312.097656 431.761719 L 304.847656 440.042969 C 305.394531 440.324219 306.011719 440.523438 306.695312 440.523438 L 317.160156 440.523438 C 318.050781 440.523438 318.804688 440.25 319.488281 439.777344 Z M 304.027344 422.921875 C 303.136719 423.683594 302.589844 424.769531 302.589844 426.003906 L 302.589844 436.480469 C 302.589844 437.851562 303.273438 439.015625 304.300781 439.777344 L 311.6875 431.34375 Z M 319.964844 439.433594 C 320.789062 438.671875 321.265625 437.644531 321.265625 436.480469 L 321.265625 426.003906 C 321.265625 424.769531 320.71875 423.742188 319.898438 422.996094 L 312.578125 431.34375 Z M 312.097656 430.871094 L 319.417969 422.578125 C 318.804688 422.175781 317.980469 421.894531 317.160156 421.894531 L 306.695312 421.894531 C 305.875 421.894531 305.121094 422.175781 304.503906 422.578125 Z M 287.058594 431.621094 L 279.742188 439.90625 C 280.289062 440.179688 280.902344 440.386719 281.585938 440.386719 L 292.054688 440.386719 C 292.945312 440.386719 293.695312 440.117188 294.378906 439.640625 Z M 278.988281 422.785156 C 278.097656 423.542969 277.550781 424.632812 277.550781 425.867188 L 277.550781 436.351562 C 277.550781 437.722656 278.234375 438.878906 279.261719 439.640625 L 286.648438 431.214844 Z M 294.929688 439.359375 C 295.75 438.613281 296.226562 437.585938 296.226562 436.414062 L 296.226562 425.941406 C 296.226562 424.710938 295.679688 423.683594 294.859375 422.921875 L 287.472656 431.214844 Z M 287.058594 430.796875 L 294.378906 422.515625 C 293.765625 422.101562 292.945312 421.832031 292.121094 421.832031 L 281.65625 421.832031 C 280.835938 421.832031 280.082031 422.101562 279.464844 422.515625 Z M 291.027344 381.351562 C 284.597656 381.351562 279.46875 386.5625 279.46875 392.925781 C 279.46875 399.292969 284.667969 404.503906 291.027344 404.503906 C 297.390625 404.503906 302.589844 399.292969 302.589844 392.925781 C 302.589844 386.5625 297.460938 381.351562 291.027344 381.351562 Z M 469.71875 424.914062 C 469.71875 432.371094 463.699219 438.40625 456.242188 438.40625 C 448.785156 438.40625 442.765625 432.371094 442.765625 424.914062 C 442.765625 417.441406 448.785156 411.414062 456.242188 411.414062 C 463.699219 411.414062 469.71875 417.441406 469.71875 424.914062 " fill-opacity="1" fill-rule="nonzero"/></svg>